<svg width="149" height="138" viewBox="0 0 149 138" fill="none" xmlns="http://www.w3.org/2000/svg">
<path d="M15.332 20.0562C15.332 19.6606 15.2705 19.3091 15.1475 19.0015C15.0332 18.6938 14.8267 18.4126 14.5278 18.1577C14.229 17.9028 13.8071 17.6567 13.2622 17.4194C12.7261 17.1733 12.0405 16.9229 11.2056 16.668C10.2915 16.3867 9.44775 16.0747 8.67432 15.7319C7.90967 15.3804 7.2417 14.9761 6.67041 14.519C6.09912 14.0532 5.65527 13.5215 5.33887 12.9238C5.02246 12.3174 4.86426 11.6187 4.86426 10.8276C4.86426 10.0454 5.02686 9.3335 5.35205 8.69189C5.68604 8.05029 6.15625 7.49658 6.7627 7.03076C7.37793 6.55615 8.10303 6.19141 8.93799 5.93652C9.77295 5.67285 10.6958 5.54102 11.7065 5.54102C13.1304 5.54102 14.3564 5.80469 15.3848 6.33203C16.4219 6.85938 17.2173 7.56689 17.771 8.45459C18.3335 9.34229 18.6147 10.3223 18.6147 11.3945H15.332C15.332 10.7617 15.1958 10.2036 14.9233 9.72021C14.6597 9.22803 14.2554 8.84131 13.7104 8.56006C13.1743 8.27881 12.4932 8.13818 11.667 8.13818C10.8848 8.13818 10.2344 8.25684 9.71582 8.49414C9.19727 8.73145 8.81055 9.05225 8.55566 9.45654C8.30078 9.86084 8.17334 10.3179 8.17334 10.8276C8.17334 11.188 8.25684 11.5176 8.42383 11.8164C8.59082 12.1064 8.8457 12.3789 9.18848 12.6338C9.53125 12.8799 9.96191 13.1128 10.4805 13.3325C10.999 13.5522 11.6099 13.7632 12.313 13.9653C13.3765 14.2817 14.3037 14.6333 15.0947 15.02C15.8857 15.3979 16.5449 15.8286 17.0723 16.312C17.5996 16.7954 17.9951 17.3447 18.2588 17.96C18.5225 18.5664 18.6543 19.2563 18.6543 20.0298C18.6543 20.8384 18.4917 21.5679 18.1665 22.2183C17.8413 22.8599 17.3755 23.4092 16.769 23.8662C16.1714 24.3145 15.4507 24.6616 14.6069 24.9077C13.772 25.145 12.8403 25.2637 11.812 25.2637C10.8892 25.2637 9.97949 25.1406 9.08301 24.8945C8.19531 24.6484 7.38672 24.2749 6.65723 23.7739C5.92773 23.2642 5.34766 22.6313 4.91699 21.8755C4.48633 21.1108 4.271 20.2188 4.271 19.1992H7.58008C7.58008 19.8232 7.68555 20.355 7.89648 20.7944C8.11621 21.2339 8.41943 21.5942 8.80615 21.8755C9.19287 22.1479 9.64111 22.3501 10.1509 22.4819C10.6694 22.6138 11.2231 22.6797 11.812 22.6797C12.5854 22.6797 13.2314 22.5698 13.75 22.3501C14.2773 22.1304 14.6729 21.8228 14.9365 21.4272C15.2002 21.0317 15.332 20.5747 15.332 20.0562ZM27.8037 10.7354V13.0557H19.7617V10.7354H27.8037ZM22.082 7.2417H25.2593V21.0581C25.2593 21.4976 25.3208 21.8359 25.4438 22.0732C25.5757 22.3018 25.7559 22.4556 25.9844 22.5347C26.2129 22.6138 26.481 22.6533 26.7886 22.6533C27.0083 22.6533 27.2192 22.6401 27.4214 22.6138C27.6235 22.5874 27.7861 22.561 27.9092 22.5347L27.9224 24.9604C27.6587 25.0396 27.3511 25.1099 26.9995 25.1714C26.6567 25.2329 26.2612 25.2637 25.813 25.2637C25.0835 25.2637 24.4375 25.1362 23.875 24.8813C23.3125 24.6177 22.873 24.1914 22.5566 23.6025C22.2402 23.0137 22.082 22.2314 22.082 21.2559V7.2417ZM38.8384 21.6382V10.7354H42.0288V25H39.0229L38.8384 21.6382ZM39.2866 18.6719L40.3545 18.6455C40.3545 19.6035 40.249 20.4868 40.0381 21.2954C39.8271 22.0952 39.502 22.7939 39.0625 23.3916C38.623 23.9805 38.0605 24.4419 37.375 24.7759C36.6895 25.1011 35.8677 25.2637 34.9097 25.2637C34.2153 25.2637 33.5781 25.1626 32.998 24.9604C32.418 24.7583 31.917 24.4463 31.4951 24.0244C31.082 23.6025 30.7612 23.0532 30.5327 22.3765C30.3042 21.6997 30.1899 20.8911 30.1899 19.9507V10.7354H33.3672V19.9771C33.3672 20.4956 33.4287 20.9307 33.5518 21.2822C33.6748 21.625 33.8418 21.9019 34.0527 22.1128C34.2637 22.3237 34.5098 22.4731 34.791 22.561C35.0723 22.6489 35.3711 22.6929 35.6875 22.6929C36.5928 22.6929 37.3047 22.5171 37.8232 22.1655C38.3506 21.8052 38.7241 21.3218 38.9438 20.7153C39.1724 20.1089 39.2866 19.4277 39.2866 18.6719ZM53.9863 22.0469V4.75H57.1768V25H54.2896L53.9863 22.0469ZM44.7051 18.0259V17.749C44.7051 16.668 44.8325 15.6836 45.0874 14.7959C45.3423 13.8994 45.7114 13.1304 46.1948 12.4888C46.6782 11.8384 47.2671 11.3418 47.9614 10.999C48.6558 10.6475 49.438 10.4717 50.3081 10.4717C51.1694 10.4717 51.9253 10.6387 52.5757 10.9727C53.2261 11.3066 53.7798 11.7856 54.2368 12.4097C54.6938 13.0249 55.0586 13.7632 55.3311 14.6245C55.6035 15.4771 55.7969 16.4263 55.9111 17.4722V18.3555C55.7969 19.375 55.6035 20.3066 55.3311 21.1504C55.0586 21.9941 54.6938 22.7236 54.2368 23.3389C53.7798 23.9541 53.2217 24.4287 52.5625 24.7627C51.9121 25.0967 51.1519 25.2637 50.2817 25.2637C49.4204 25.2637 48.6426 25.0835 47.9482 24.7231C47.2627 24.3628 46.6782 23.8574 46.1948 23.207C45.7114 22.5566 45.3423 21.792 45.0874 20.9131C44.8325 20.0254 44.7051 19.063 44.7051 18.0259ZM47.8823 17.749V18.0259C47.8823 18.6763 47.9395 19.2827 48.0537 19.8452C48.1768 20.4077 48.3657 20.9043 48.6206 21.335C48.8755 21.7568 49.2051 22.0908 49.6094 22.3369C50.0225 22.5742 50.5146 22.6929 51.0859 22.6929C51.8066 22.6929 52.3999 22.5347 52.8657 22.2183C53.3315 21.9019 53.6963 21.4756 53.96 20.9395C54.2324 20.3945 54.417 19.7881 54.5137 19.1201V16.7339C54.4609 16.2153 54.3511 15.7319 54.1841 15.2837C54.0259 14.8354 53.8105 14.4443 53.5381 14.1104C53.2656 13.7676 52.9272 13.5039 52.5229 13.3193C52.1274 13.126 51.6572 13.0293 51.1123 13.0293C50.5322 13.0293 50.04 13.1523 49.6357 13.3984C49.2314 13.6445 48.8975 13.9829 48.6338 14.4136C48.3789 14.8442 48.1899 15.3452 48.0669 15.9165C47.9438 16.4878 47.8823 17.0986 47.8823 17.749ZM64.6387 23.4443L68.5146 10.7354H71.916L66.1943 27.1753C66.0625 27.5269 65.8911 27.9092 65.6802 28.3223C65.4692 28.7354 65.1924 29.1265 64.8496 29.4956C64.5156 29.8735 64.0981 30.1768 63.5972 30.4053C63.0962 30.6426 62.4897 30.7612 61.7778 30.7612C61.4966 30.7612 61.2241 30.7349 60.9604 30.6821C60.7056 30.6382 60.4639 30.5898 60.2354 30.5371L60.2222 28.1113C60.3101 28.1201 60.4155 28.1289 60.5386 28.1377C60.6704 28.1465 60.7759 28.1509 60.855 28.1509C61.3823 28.1509 61.8218 28.085 62.1733 27.9531C62.5249 27.8301 62.8105 27.6279 63.0303 27.3467C63.2588 27.0654 63.4521 26.6875 63.6104 26.2129L64.6387 23.4443ZM62.4502 10.7354L65.8384 21.4141L66.4053 24.7627L64.2036 25.3296L59.0225 10.7354H62.4502ZM84.1504 20.0562C84.1504 19.6606 84.0889 19.3091 83.9658 19.0015C83.8516 18.6938 83.645 18.4126 83.3462 18.1577C83.0474 17.9028 82.6255 17.6567 82.0806 17.4194C81.5444 17.1733 80.8589 16.9229 80.0239 16.668C79.1099 16.3867 78.2661 16.0747 77.4927 15.7319C76.728 15.3804 76.0601 14.9761 75.4888 14.519C74.9175 14.0532 74.4736 13.5215 74.1572 12.9238C73.8408 12.3174 73.6826 11.6187 73.6826 10.8276C73.6826 10.0454 73.8452 9.3335 74.1704 8.69189C74.5044 8.05029 74.9746 7.49658 75.5811 7.03076C76.1963 6.55615 76.9214 6.19141 77.7563 5.93652C78.5913 5.67285 79.5142 5.54102 80.5249 5.54102C81.9487 5.54102 83.1748 5.80469 84.2031 6.33203C85.2402 6.85938 86.0356 7.56689 86.5894 8.45459C87.1519 9.34229 87.4331 10.3223 87.4331 11.3945H84.1504C84.1504 10.7617 84.0142 10.2036 83.7417 9.72021C83.478 9.22803 83.0737 8.84131 82.5288 8.56006C81.9927 8.27881 81.3115 8.13818 80.4854 8.13818C79.7031 8.13818 79.0527 8.25684 78.5342 8.49414C78.0156 8.73145 77.6289 9.05225 77.374 9.45654C77.1191 9.86084 76.9917 10.3179 76.9917 10.8276C76.9917 11.188 77.0752 11.5176 77.2422 11.8164C77.4092 12.1064 77.6641 12.3789 78.0068 12.6338C78.3496 12.8799 78.7803 13.1128 79.2988 13.3325C79.8174 13.5522 80.4282 13.7632 81.1313 13.9653C82.1948 14.2817 83.1221 14.6333 83.9131 15.02C84.7041 15.3979 85.3633 15.8286 85.8906 16.312C86.418 16.7954 86.8135 17.3447 87.0771 17.96C87.3408 18.5664 87.4727 19.2563 87.4727 20.0298C87.4727 20.8384 87.3101 21.5679 86.9849 22.2183C86.6597 22.8599 86.1938 23.4092 85.5874 23.8662C84.9897 24.3145 84.269 24.6616 83.4253 24.9077C82.5903 25.145 81.6587 25.2637 80.6304 25.2637C79.7075 25.2637 78.7979 25.1406 77.9014 24.8945C77.0137 24.6484 76.2051 24.2749 75.4756 23.7739C74.7461 23.2642 74.166 22.6313 73.7354 21.8755C73.3047 21.1108 73.0894 20.2188 73.0894 19.1992H76.3984C76.3984 19.8232 76.5039 20.355 76.7148 20.7944C76.9346 21.2339 77.2378 21.5942 77.6245 21.8755C78.0112 22.1479 78.4595 22.3501 78.9692 22.4819C79.4878 22.6138 80.0415 22.6797 80.6304 22.6797C81.4038 22.6797 82.0498 22.5698 82.5684 22.3501C83.0957 22.1304 83.4912 21.8228 83.7549 21.4272C84.0186 21.0317 84.1504 20.5747 84.1504 20.0562ZM93.2603 13.6357V25H90.083V10.7354H93.0757L93.2603 13.6357ZM92.7461 17.3403L91.665 17.3271C91.665 16.3428 91.7881 15.4331 92.0342 14.5981C92.2803 13.7632 92.6406 13.0381 93.1152 12.4229C93.5898 11.7988 94.1787 11.3198 94.8818 10.9858C95.5938 10.6431 96.4155 10.4717 97.3472 10.4717C97.9976 10.4717 98.5908 10.5684 99.127 10.7617C99.6719 10.9463 100.142 11.2407 100.538 11.645C100.942 12.0493 101.25 12.5679 101.46 13.2007C101.68 13.8335 101.79 14.5981 101.79 15.4946V25H98.6128V15.7715C98.6128 15.0771 98.5073 14.5322 98.2964 14.1367C98.0942 13.7412 97.7998 13.46 97.4131 13.293C97.0352 13.1172 96.5825 13.0293 96.0552 13.0293C95.4575 13.0293 94.9478 13.1436 94.5259 13.3721C94.1128 13.6006 93.7744 13.9126 93.5107 14.3081C93.2471 14.7036 93.0537 15.1606 92.9307 15.6792C92.8076 16.1978 92.7461 16.7515 92.7461 17.3403ZM101.592 16.4966L100.103 16.8262C100.103 15.9648 100.221 15.1519 100.458 14.3872C100.705 13.6138 101.061 12.937 101.526 12.3569C102.001 11.7681 102.585 11.3066 103.28 10.9727C103.974 10.6387 104.77 10.4717 105.666 10.4717C106.396 10.4717 107.046 10.5728 107.617 10.7749C108.197 10.9683 108.689 11.2759 109.094 11.6978C109.498 12.1196 109.806 12.6689 110.017 13.3457C110.228 14.0137 110.333 14.8223 110.333 15.7715V25H107.143V15.7583C107.143 15.0376 107.037 14.4795 106.826 14.084C106.624 13.6885 106.334 13.416 105.956 13.2666C105.578 13.1084 105.125 13.0293 104.598 13.0293C104.106 13.0293 103.671 13.1216 103.293 13.3062C102.924 13.4819 102.612 13.7324 102.357 14.0576C102.102 14.374 101.909 14.7388 101.777 15.1519C101.654 15.5649 101.592 16.0132 101.592 16.4966ZM121.645 22.1392V15.3364C121.645 14.8267 121.552 14.3872 121.368 14.0181C121.183 13.6489 120.902 13.3633 120.524 13.1611C120.155 12.959 119.689 12.8579 119.126 12.8579C118.608 12.8579 118.16 12.9458 117.782 13.1216C117.404 13.2974 117.109 13.5347 116.898 13.8335C116.688 14.1323 116.582 14.4707 116.582 14.8486H113.418C113.418 14.2861 113.554 13.7412 113.827 13.2139C114.099 12.6865 114.495 12.2163 115.013 11.8032C115.532 11.3901 116.151 11.0649 116.872 10.8276C117.593 10.5903 118.401 10.4717 119.298 10.4717C120.37 10.4717 121.319 10.6519 122.146 11.0122C122.98 11.3726 123.635 11.9175 124.11 12.647C124.593 13.3677 124.835 14.2729 124.835 15.3628V21.7041C124.835 22.3545 124.879 22.939 124.967 23.4575C125.063 23.9673 125.2 24.4111 125.375 24.7891V25H122.119C121.97 24.6572 121.851 24.2222 121.763 23.6948C121.684 23.1587 121.645 22.6401 121.645 22.1392ZM122.106 16.3252L122.132 18.2896H119.852C119.263 18.2896 118.744 18.3467 118.296 18.4609C117.848 18.5664 117.474 18.7246 117.175 18.9355C116.876 19.1465 116.652 19.4014 116.503 19.7002C116.354 19.999 116.279 20.3374 116.279 20.7153C116.279 21.0933 116.367 21.4404 116.542 21.7568C116.718 22.0645 116.973 22.3062 117.307 22.4819C117.65 22.6577 118.063 22.7456 118.546 22.7456C119.197 22.7456 119.764 22.6138 120.247 22.3501C120.739 22.0776 121.126 21.748 121.407 21.3613C121.688 20.9658 121.838 20.5923 121.855 20.2407L122.884 21.6514C122.778 22.0117 122.598 22.3984 122.343 22.8115C122.088 23.2246 121.754 23.6201 121.341 23.998C120.937 24.3672 120.449 24.6704 119.878 24.9077C119.315 25.145 118.665 25.2637 117.927 25.2637C116.995 25.2637 116.165 25.0791 115.435 24.71C114.706 24.332 114.134 23.8267 113.721 23.1938C113.308 22.5522 113.102 21.8271 113.102 21.0186C113.102 20.2627 113.242 19.5947 113.523 19.0146C113.813 18.4258 114.235 17.9336 114.789 17.5381C115.352 17.1426 116.037 16.8438 116.846 16.6416C117.654 16.4307 118.577 16.3252 119.614 16.3252H122.106ZM131.348 13.4512V25H128.17V10.7354H131.203L131.348 13.4512ZM135.711 10.6431L135.685 13.5962C135.492 13.561 135.281 13.5347 135.052 13.5171C134.833 13.4995 134.613 13.4907 134.393 13.4907C133.848 13.4907 133.369 13.5698 132.956 13.728C132.543 13.8774 132.196 14.0972 131.915 14.3872C131.642 14.6685 131.431 15.0112 131.282 15.4155C131.132 15.8198 131.044 16.2725 131.018 16.7734L130.293 16.8262C130.293 15.9297 130.381 15.0991 130.557 14.3345C130.732 13.5698 130.996 12.8975 131.348 12.3174C131.708 11.7373 132.156 11.2847 132.692 10.9595C133.237 10.6343 133.866 10.4717 134.578 10.4717C134.771 10.4717 134.978 10.4893 135.197 10.5244C135.426 10.5596 135.597 10.5991 135.711 10.6431ZM144.9 10.7354V13.0557H136.858V10.7354H144.9ZM139.179 7.2417H142.356V21.0581C142.356 21.4976 142.417 21.8359 142.541 22.0732C142.672 22.3018 142.853 22.4556 143.081 22.5347C143.31 22.6138 143.578 22.6533 143.885 22.6533C144.105 22.6533 144.316 22.6401 144.518 22.6138C144.72 22.5874 144.883 22.561 145.006 22.5347L145.019 24.9604C144.755 25.0396 144.448 25.1099 144.096 25.1714C143.753 25.2329 143.358 25.2637 142.91 25.2637C142.18 25.2637 141.534 25.1362 140.972 24.8813C140.409 24.6177 139.97 24.1914 139.653 23.6025C139.337 23.0137 139.179 22.2314 139.179 21.2559V7.2417Z" fill="#253F63"/>
<path d="M130 122.111C121.205 114.94 103.454 100.517 102.804 100.192L95.498 108.716C104.428 116.834 119.582 121.57 130 122.111Z" fill="#967B63" stroke="#967B63" stroke-width="3"/>
<path d="M57.5646 112.208L55.6627 127.514M54.4616 137.182L55.6627 127.514M55.6627 127.514L49.5254 134.114M55.6627 127.514L61.2068 135.566" stroke="#E1A760"/>
<path d="M73.4458 111.972L73.2972 127.396M73.2034 137.137L73.2972 127.396M73.2972 127.396L67.9503 134.651M73.2972 127.396L79.721 134.765" stroke="#E1A760"/>
<path d="M20 81.5202L30.1476 77.4612V86.797L20 81.5202Z" fill="#F2B66D" stroke="#F2B66D"/>
<path d="M114.877 87.2367C118.327 42.3521 35.5162 41.5417 28.6153 74.6742C26.5385 84.6453 30.5322 104.03 48.9347 112.459C71.9377 122.996 99.9248 117.322 108.359 106.381C115.107 97.6274 114.225 95.7189 114.877 87.2367Z" fill="#EEE0C6" stroke="#EEE0C6"/>
<path d="M72.7177 57.9057C63.1927 62.5955 54.6906 63.2531 43.6061 60.9477L42.9551 47.5687L72.1456 46.1484L72.7177 57.9057Z" fill="#141656" stroke="#141656"/>
<path d="M60.0312 56.0847L25.5021 48.0116L52.8451 33.6768L87.7994 42.1356L60.0312 56.0847Z" fill="#272A72" stroke="#272A72"/>
<circle cx="32.583" cy="75.4317" r="2.02952" fill="#030303"/>
<path d="M67.4908 79.8967C108.487 94.1033 102.804 110.745 57.7491 95.7269L67.4908 79.8967Z" fill="#967B63" stroke="#967B63" stroke-width="3"/>
</svg>
