<svg width="67" height="58" viewBox="0 0 67 58" fill="none" xmlns="http://www.w3.org/2000/svg">
<path d="M62.1985 49.3139C57.3856 45.3896 47.6709 37.4964 47.3155 37.3187L43.3171 41.9835C48.204 46.4262 56.4971 49.0178 62.1985 49.3139Z" fill="#967B63" stroke="#967B63" stroke-width="3"/>
<path d="M22.5576 43.8945L21.5168 52.2712M20.8594 57.5618L21.5168 52.2712M21.5168 52.2712L18.158 55.8831M21.5168 52.2712L24.5508 56.6774" stroke="#E1A760"/>
<path d="M31.2487 43.7657L31.1674 52.2064M31.1161 57.5374L31.1674 52.2064M31.1674 52.2064L28.2413 56.1768M31.1674 52.2064L34.6829 56.2389" stroke="#E1A760"/>
<path d="M2 27.1004L7.55337 24.8791V29.9882L2 27.1004Z" fill="#F2B66D" stroke="#F2B66D"/>
<path d="M53.9222 30.2289C55.8105 5.66535 10.4914 5.2218 6.71477 23.3539C5.57821 28.8107 7.76383 39.4193 17.8347 44.0321C30.4234 49.7982 45.7396 46.6934 50.3554 40.7055C54.0481 35.9152 53.5653 34.8708 53.9222 30.2289Z" fill="#EEE0C6" stroke="#EEE0C6"/>
<path d="M30.8503 14.1771C25.6376 16.7437 20.9848 17.1035 14.9187 15.8419L14.5624 8.52014L30.5372 7.74283L30.8503 14.1771Z" fill="#141656" stroke="#141656"/>
<path d="M23.9075 13.1806L5.01109 8.76251L19.9748 0.917677L39.1039 5.54683L23.9075 13.1806Z" fill="#272A72" stroke="#272A72"/>
<circle cx="8.88617" cy="23.7684" r="1.11067" fill="#030303"/>
<path d="M27.9898 26.2119C50.4254 33.9866 47.3155 43.0942 22.6585 34.8752L27.9898 26.2119Z" fill="#967B63" stroke="#967B63" stroke-width="3"/>
</svg>
