<svg width="145" height="128" viewBox="0 0 145 128" fill="none" xmlns="http://www.w3.org/2000/svg">
<path d="M19.391 12.0948L56.8496 34.7523L23.2634 55.7012L19.391 12.0948Z" fill="black"/>
<path d="M124.659 12.0948L87.2006 34.7523L120.787 55.7012L124.659 12.0948Z" fill="black"/>
<circle cx="73.1428" cy="74.6666" r="53.3333" fill="#E0B494"/>
<rect x="19.8095" y="71.619" width="106.667" height="56.381" fill="#E0B494"/>
<circle cx="53.3333" cy="64" r="4.57143" fill="black"/>
<circle cx="88.3809" cy="64" r="4.57143" fill="black"/>
<ellipse cx="71.6191" cy="77.7143" rx="9.14286" ry="3.04762" fill="black"/>
<path d="M51.8095 88.0968C56.0423 94.7038 65.9301 101.877 71.619 77.7143" stroke="black" stroke-width="2"/>
<path d="M91.4286 88.0968C87.1958 94.7038 77.308 101.877 71.6191 77.7143" stroke="black" stroke-width="2"/>
<path d="M40.5333 74.1421L1.5238 59.4286M40.5333 78.0141L8.22857 83.4348M41.1429 82.6604L25.2952 94.2764L16.7619 100.472L8.22857 106.667" stroke="black" stroke-width="2"/>
<path d="M101.181 73.6675L140.19 59.4286M101.181 77.4145L133.486 82.6604M100.571 81.911L116.419 93.1522L124.952 99.1476L133.486 105.143" stroke="black" stroke-width="2"/>
</svg>
