<svg width="378" height="443" viewBox="0 0 378 443" fill="none" xmlns="http://www.w3.org/2000/svg">
<path d="M272.727 355.969C288.116 372.086 321.901 397.18 333.933 368.625C345.964 340.07 334.367 309.998 338.6 284.324C340.608 272.145 350.833 245.905 375.671 238.379" stroke="#958071" stroke-width="11"/>
<path d="M41.4991 34.1914L117.125 68.034L46.9754 116.863L41.4991 34.1914Z" fill="#958071"/>
<path d="M268.569 28.1914L192.943 62.034L263.093 110.863L268.569 28.1914Z" fill="#958071"/>
<path d="M245.5 84.4998C197.159 39.3514 97.5 50 57.6017 90.8962C18.5 159.5 30.3496 225 30.3496 264.674C30.3497 313.721 35.3932 426 139.5 426C211.5 426 228.618 433.218 250.5 412.5C297.5 368 327.256 160.857 245.5 84.4998Z" fill="#E0C9B8"/>
<path d="M160 157H139L149.5 176L160 157Z" fill="black"/>
<circle cx="106.481" cy="140.926" r="7.31481" fill="black"/>
<circle cx="191.5" cy="140.926" r="7.31481" fill="black"/>
<path d="M88 255C96.8333 306.5 116.2 378.6 123 255H88Z" fill="#958071" stroke="#958071" stroke-width="9"/>
<path d="M181 255C189.833 306.5 209.2 378.6 216 255H181Z" fill="#958071" stroke="#958071" stroke-width="9"/>
<path d="M201 175L242 162M201 185.5H229.5M201 197.5L236 207" stroke="#958071" stroke-width="5"/>
<path d="M103 175L62 162M103 185.5H74.5M103 197.5L68 207" stroke="#958071" stroke-width="5"/>
<path d="M89 442C90.513 388.484 145.731 386.194 148 442H89Z" fill="#958071" stroke="#958071"/>
<path d="M177 442C178.513 388.484 233.731 386.194 236 442H177Z" fill="#958071" stroke="#958071"/>
<path d="M149.5 174.5V193M149.5 193C144 204 131 204 124 193M149.5 193C156.5 204 169.5 204 175 193" stroke="black" stroke-width="2"/>
</svg>
