<svg xmlns="http://www.w3.org/2000/svg" xmlns:xlink="http://www.w3.org/1999/xlink" width="250" zoomAndPan="magnify" viewBox="0 0 375 374.999991" height="250" preserveAspectRatio="xMidYMid meet" version="1.0"><defs><g/><clipPath id="8c27e07403"><path d="M 138.027344 104.632812 L 237.027344 104.632812 L 237.027344 203.632812 L 138.027344 203.632812 Z M 138.027344 104.632812 " clip-rule="nonzero"/></clipPath></defs><rect x="-37.5" width="450" fill="#ffffff" y="-37.499999" height="449.999989" fill-opacity="1"/><rect x="-37.5" width="450" fill="#ffffff" y="-37.499999" height="449.999989" fill-opacity="1"/><rect x="-37.5" width="450" fill="#ffffff" y="-37.499999" height="449.999989" fill-opacity="1"/><g clip-path="url(#8c27e07403)"><path fill="#ff914d" d="M 187.496094 104.746094 C 186.925781 104.753906 186.472656 105.222656 186.480469 105.792969 L 186.480469 116.398438 C 186.472656 116.972656 186.9375 117.441406 187.511719 117.441406 C 188.085938 117.441406 188.546875 116.972656 188.542969 116.398438 L 188.542969 105.792969 C 188.546875 105.210938 188.074219 104.738281 187.496094 104.746094 Z M 174.003906 108.355469 C 173.222656 108.378906 172.757812 109.238281 173.160156 109.910156 L 178.464844 119.097656 C 178.746094 119.605469 179.382812 119.785156 179.882812 119.492188 C 180.382812 119.207031 180.550781 118.5625 180.25 118.070312 L 174.941406 108.878906 C 174.753906 108.542969 174.390625 108.335938 174.003906 108.355469 Z M 200.988281 108.355469 C 200.609375 108.347656 200.261719 108.550781 200.078125 108.878906 L 194.765625 118.070312 C 194.472656 118.5625 194.636719 119.203125 195.136719 119.492188 C 195.636719 119.785156 196.277344 119.601562 196.550781 119.097656 L 201.863281 109.910156 C 202.269531 109.222656 201.78125 108.359375 200.988281 108.355469 Z M 164.226562 118.210938 C 163.148438 118.167969 162.738281 119.605469 163.683594 120.132812 L 172.878906 125.4375 C 173.375 125.738281 174.011719 125.574219 174.304688 125.074219 C 174.59375 124.574219 174.417969 123.933594 173.90625 123.65625 L 164.714844 118.347656 C 164.566406 118.261719 164.398438 118.214844 164.226562 118.210938 Z M 210.871094 118.210938 C 210.671875 118.199219 210.476562 118.253906 210.304688 118.355469 L 201.117188 123.65625 C 200.605469 123.933594 200.429688 124.574219 200.71875 125.074219 C 201.007812 125.574219 201.648438 125.738281 202.140625 125.4375 L 211.335938 120.132812 C 212.25 119.628906 211.910156 118.242188 210.871094 118.210938 Z M 187.589844 120.90625 C 181.066406 120.90625 175.769531 126.261719 175.769531 132.828125 C 175.769531 134.328125 176.050781 135.761719 176.546875 137.089844 C 167.917969 134.8125 158.996094 133.671875 150.074219 133.664062 C 150.011719 133.644531 149.949219 133.640625 149.886719 133.640625 C 149.316406 133.652344 148.867188 134.117188 148.871094 134.683594 L 148.871094 143.996094 C 147.4375 143.878906 145.992188 143.78125 144.535156 143.710938 C 142.78125 143.625 141.011719 143.589844 139.234375 143.589844 C 139.171875 143.578125 139.105469 143.566406 139.042969 143.566406 C 138.472656 143.578125 138.015625 144.042969 138.027344 144.613281 L 138.027344 144.621094 C 138.027344 144.628906 138.027344 144.636719 138.027344 144.644531 L 138.027344 191.863281 C 138.027344 191.863281 138.027344 191.863281 138.027344 191.867188 C 138.027344 191.894531 138.03125 191.921875 138.03125 191.949219 C 138.03125 191.960938 138.03125 191.964844 138.03125 191.972656 C 138.039062 192.003906 138.046875 192.035156 138.054688 192.066406 C 138.054688 192.066406 138.054688 192.066406 138.054688 192.074219 C 138.058594 192.105469 138.070312 192.136719 138.082031 192.167969 C 138.089844 192.203125 138.109375 192.234375 138.117188 192.265625 C 138.132812 192.296875 138.152344 192.332031 138.167969 192.363281 C 138.199219 192.425781 138.242188 192.480469 138.285156 192.535156 C 138.304688 192.554688 138.328125 192.578125 138.347656 192.597656 C 138.355469 192.605469 138.355469 192.605469 138.359375 192.605469 C 138.457031 192.695312 138.570312 192.769531 138.691406 192.820312 C 138.699219 192.824219 138.699219 192.824219 138.703125 192.824219 C 138.730469 192.835938 138.757812 192.847656 138.789062 192.851562 C 138.796875 192.851562 138.800781 192.855469 138.804688 192.855469 C 138.832031 192.863281 138.859375 192.867188 138.882812 192.875 C 138.886719 192.878906 138.898438 192.878906 138.902344 192.878906 C 138.929688 192.882812 138.957031 192.882812 138.988281 192.890625 C 138.992188 192.890625 139 192.890625 139.003906 192.890625 C 139.027344 192.890625 139.054688 192.890625 139.074219 192.890625 C 154.074219 192.890625 168.375 195.675781 181.382812 200.710938 C 182.957031 202.429688 185.132812 203.519531 187.527344 203.519531 C 189.929688 203.519531 192.097656 202.429688 193.671875 200.710938 C 206.679688 195.675781 220.976562 192.890625 235.984375 192.890625 C 235.992188 192.890625 236 192.890625 236.011719 192.890625 C 236.015625 192.890625 236.023438 192.890625 236.027344 192.890625 C 236.058594 192.890625 236.085938 192.882812 236.113281 192.882812 C 236.121094 192.878906 236.125 192.878906 236.136719 192.878906 C 236.167969 192.875 236.195312 192.867188 236.226562 192.863281 C 236.230469 192.855469 236.230469 192.855469 236.238281 192.855469 C 236.300781 192.839844 236.367188 192.820312 236.425781 192.792969 C 236.453125 192.777344 236.484375 192.761719 236.511719 192.746094 L 236.515625 192.746094 C 236.574219 192.707031 236.628906 192.667969 236.683594 192.621094 C 236.703125 192.597656 236.726562 192.578125 236.746094 192.550781 L 236.753906 192.550781 C 236.78125 192.523438 236.800781 192.496094 236.824219 192.476562 C 236.824219 192.46875 236.824219 192.46875 236.824219 192.46875 C 236.839844 192.445312 236.859375 192.417969 236.875 192.382812 C 236.894531 192.359375 236.910156 192.324219 236.925781 192.296875 C 236.929688 192.292969 236.929688 192.28125 236.9375 192.277344 C 236.960938 192.21875 236.984375 192.160156 237 192.09375 L 237 192.089844 C 237.003906 192.058594 237.015625 192.023438 237.015625 191.992188 C 237.015625 191.988281 237.015625 191.980469 237.015625 191.972656 C 237.023438 191.945312 237.027344 191.917969 237.027344 191.890625 C 237.027344 191.875 237.027344 191.859375 237.027344 191.84375 C 237.027344 191.824219 237.027344 191.816406 237.027344 191.804688 L 237.027344 144.582031 C 237.027344 144.558594 237.027344 144.539062 237.027344 144.515625 C 237 143.964844 236.539062 143.527344 235.984375 143.535156 C 235.929688 143.539062 235.878906 143.546875 235.824219 143.554688 C 234.046875 143.554688 232.273438 143.605469 230.515625 143.683594 C 229.066406 143.75 227.621094 143.847656 226.183594 143.964844 L 226.183594 134.652344 C 226.1875 134.628906 226.1875 134.609375 226.183594 134.585938 C 226.183594 134.566406 226.183594 134.542969 226.175781 134.523438 C 226.175781 134.515625 226.175781 134.515625 226.175781 134.515625 C 226.113281 133.996094 225.667969 133.601562 225.140625 133.609375 C 225.085938 133.613281 225.039062 133.621094 224.984375 133.628906 C 216.121094 133.636719 207.261719 134.769531 198.683594 137.015625 C 199.171875 135.703125 199.441406 134.28125 199.441406 132.796875 C 199.441406 126.234375 194.144531 120.875 187.625 120.875 Z M 187.589844 122.96875 C 192.984375 122.96875 197.351562 127.363281 197.351562 132.828125 C 197.351562 134.199219 197.078125 135.492188 196.582031 136.675781 C 196.089844 137.855469 195.367188 138.921875 194.488281 139.8125 C 194.042969 140.257812 193.558594 140.660156 193.039062 141.015625 C 192.414062 141.441406 190.589844 142.835938 190.589844 145.382812 C 190.589844 145.425781 190.59375 145.46875 190.597656 145.511719 L 190.597656 146.597656 L 188.535156 146.597656 L 188.535156 139.082031 C 190.289062 138.652344 191.625 137.144531 191.625 135.300781 C 191.636719 134.730469 191.175781 134.257812 190.597656 134.257812 C 190.023438 134.257812 189.5625 134.730469 189.566406 135.300781 C 189.566406 136.308594 188.703125 137.160156 187.511719 137.160156 C 186.3125 137.160156 185.449219 136.308594 185.449219 135.300781 C 185.460938 134.71875 184.988281 134.246094 184.40625 134.257812 C 183.835938 134.269531 183.386719 134.738281 183.390625 135.300781 C 183.390625 137.144531 184.730469 138.648438 186.480469 139.082031 L 186.480469 146.597656 L 184.421875 146.597656 L 184.421875 145.382812 C 184.421875 145.34375 184.417969 145.3125 184.410156 145.273438 C 184.367188 142.851562 182.820312 141.488281 182.132812 141.015625 C 181.613281 140.660156 181.128906 140.257812 180.683594 139.8125 C 179.804688 138.921875 179.089844 137.855469 178.59375 136.675781 C 178.101562 135.492188 177.828125 134.199219 177.828125 132.828125 C 177.828125 127.363281 182.1875 122.96875 187.585938 122.96875 Z M 150.929688 135.726562 C 160 135.8125 169.0625 137.082031 177.785156 139.558594 C 177.804688 139.566406 177.820312 139.570312 177.84375 139.582031 C 178.25 140.183594 178.714844 140.746094 179.230469 141.261719 C 179.761719 141.804688 180.347656 142.292969 180.972656 142.722656 C 181.425781 143.023438 182.359375 143.726562 182.359375 145.386719 L 182.359375 150.882812 C 182.359375 153.359375 184.136719 155.441406 186.480469 155.921875 L 186.480469 190.703125 C 175.480469 186.5625 163.492188 184.230469 150.929688 184.109375 Z M 224.09375 135.726562 L 224.09375 184.109375 C 211.535156 184.226562 199.542969 186.558594 188.542969 190.699219 L 188.542969 155.914062 C 190.882812 155.4375 192.65625 153.359375 192.65625 150.875 L 192.65625 145.382812 C 192.660156 145.34375 192.660156 145.308594 192.65625 145.269531 C 192.703125 143.742188 193.691406 143.066406 194.203125 142.71875 C 194.832031 142.289062 195.417969 141.800781 195.953125 141.257812 C 196.480469 140.726562 196.953125 140.144531 197.378906 139.523438 C 206.058594 137.074219 215.070312 135.8125 224.09375 135.726562 Z M 140.085938 145.65625 C 141.546875 145.660156 143 145.710938 144.445312 145.773438 C 145.929688 145.839844 147.40625 145.941406 148.871094 146.0625 L 148.871094 185.128906 C 148.871094 185.132812 148.871094 185.140625 148.871094 185.144531 C 148.871094 185.15625 148.871094 185.160156 148.871094 185.164062 C 148.875 185.835938 149.503906 186.320312 150.15625 186.160156 C 163.191406 186.1875 175.609375 188.644531 186.921875 193.070312 C 187.097656 193.183594 187.300781 193.242188 187.511719 193.238281 C 187.71875 193.242188 187.925781 193.183594 188.101562 193.070312 C 199.488281 188.621094 211.992188 186.160156 225.121094 186.160156 C 225.128906 186.160156 225.140625 186.160156 225.144531 186.152344 C 225.15625 186.152344 225.164062 186.152344 225.167969 186.152344 C 225.195312 186.152344 225.226562 186.152344 225.253906 186.148438 C 225.257812 186.148438 225.265625 186.148438 225.269531 186.144531 C 225.300781 186.136719 225.328125 186.132812 225.355469 186.128906 C 225.359375 186.128906 225.359375 186.128906 225.367188 186.128906 C 225.429688 186.109375 225.496094 186.085938 225.554688 186.058594 C 225.582031 186.042969 225.613281 186.023438 225.640625 186.007812 L 225.644531 186.007812 C 225.703125 185.976562 225.757812 185.933594 225.8125 185.890625 L 225.8125 185.886719 C 225.832031 185.863281 225.855469 185.84375 225.875 185.820312 L 225.882812 185.816406 C 225.910156 185.792969 225.929688 185.765625 225.953125 185.742188 C 225.953125 185.742188 225.953125 185.742188 225.953125 185.734375 C 225.988281 185.679688 226.027344 185.628906 226.054688 185.5625 C 226.082031 185.5 226.101562 185.433594 226.117188 185.371094 L 226.117188 185.363281 C 226.128906 185.332031 226.132812 185.300781 226.140625 185.269531 C 226.140625 185.261719 226.140625 185.257812 226.140625 185.25 C 226.144531 185.21875 226.144531 185.191406 226.144531 185.164062 C 226.152344 185.148438 226.152344 185.132812 226.144531 185.117188 C 226.144531 185.105469 226.144531 185.089844 226.144531 185.078125 L 226.144531 146.054688 C 227.617188 145.925781 229.09375 145.828125 230.578125 145.757812 C 232.019531 145.695312 233.472656 145.65625 234.933594 145.640625 L 234.933594 190.835938 C 219.957031 190.960938 205.691406 193.8125 192.683594 198.878906 C 192.671875 198.878906 192.660156 198.882812 192.65625 198.882812 C 192.644531 198.890625 192.636719 198.890625 192.628906 198.894531 C 192.4375 198.96875 192.269531 199.109375 192.15625 199.28125 C 190.921875 200.644531 189.300781 201.449219 187.5 201.449219 C 185.695312 201.449219 184.058594 200.632812 182.820312 199.253906 C 182.742188 199.136719 182.640625 199.039062 182.515625 198.964844 C 182.417969 198.898438 182.3125 198.851562 182.199219 198.824219 C 169.226562 193.785156 155 190.957031 140.078125 190.832031 Z M 184.421875 148.652344 L 190.597656 148.652344 L 190.597656 150.875 C 190.597656 152.601562 189.242188 153.960938 187.511719 153.960938 C 185.78125 153.960938 184.421875 152.601562 184.421875 150.875 Z M 188.113281 150.070312 L 186.921875 150.070312 C 186.335938 150.050781 185.851562 150.515625 185.851562 151.101562 C 185.851562 151.683594 186.335938 152.148438 186.921875 152.128906 L 188.105469 152.128906 C 188.6875 152.148438 189.171875 151.683594 189.171875 151.101562 C 189.175781 150.523438 188.699219 150.054688 188.113281 150.070312 Z M 156.617188 154.054688 C 156.046875 154.054688 155.578125 154.519531 155.578125 155.085938 C 155.578125 155.65625 156.046875 156.117188 156.617188 156.117188 C 165.082031 156.117188 173.136719 157.515625 180.457031 160.035156 C 181 160.222656 181.59375 159.9375 181.78125 159.402344 C 181.960938 158.859375 181.671875 158.273438 181.128906 158.089844 C 173.589844 155.492188 165.308594 154.054688 156.617188 154.054688 Z M 218.40625 154.054688 C 209.714844 154.054688 201.433594 155.492188 193.890625 158.089844 C 193.355469 158.273438 193.066406 158.859375 193.253906 159.394531 C 193.433594 159.933594 194.019531 160.21875 194.5625 160.035156 C 201.882812 157.515625 209.941406 156.117188 218.40625 156.117188 C 218.980469 156.117188 219.441406 155.65625 219.441406 155.085938 C 219.441406 154.519531 218.980469 154.054688 218.40625 154.054688 Z M 156.617188 164.402344 C 156.042969 164.394531 155.574219 164.859375 155.574219 165.433594 C 155.574219 166.007812 156.042969 166.46875 156.617188 166.464844 C 165.082031 166.464844 173.136719 167.859375 180.457031 170.378906 C 181 170.574219 181.59375 170.28125 181.78125 169.746094 C 181.960938 169.203125 181.671875 168.617188 181.128906 168.433594 C 173.589844 165.835938 165.308594 164.402344 156.617188 164.402344 Z M 218.40625 164.402344 C 209.714844 164.402344 201.433594 165.835938 193.890625 168.433594 C 193.355469 168.617188 193.066406 169.203125 193.253906 169.738281 C 193.433594 170.277344 194.019531 170.566406 194.5625 170.378906 C 201.882812 167.859375 209.941406 166.464844 218.40625 166.464844 C 218.980469 166.46875 219.449219 166.007812 219.449219 165.433594 C 219.449219 164.859375 218.980469 164.394531 218.40625 164.402344 Z M 156.617188 175.316406 C 155.257812 175.332031 155.257812 177.363281 156.617188 177.378906 C 165.082031 177.378906 173.136719 178.773438 180.457031 181.292969 C 181 181.488281 181.59375 181.203125 181.78125 180.660156 C 181.96875 180.117188 181.679688 179.527344 181.128906 179.347656 C 173.589844 176.75 165.308594 175.316406 156.617188 175.316406 Z M 218.40625 175.316406 C 209.714844 175.316406 201.433594 176.75 193.890625 179.347656 C 193.355469 179.53125 193.066406 180.117188 193.253906 180.652344 C 193.433594 181.191406 194.019531 181.480469 194.5625 181.292969 C 201.882812 178.773438 209.941406 177.378906 218.40625 177.378906 C 218.980469 177.378906 219.449219 176.914062 219.449219 176.347656 C 219.449219 175.773438 218.980469 175.308594 218.40625 175.316406 Z M 218.40625 175.316406 " fill-opacity="1" fill-rule="nonzero"/></g><g fill="#ff914d" fill-opacity="1"><g transform="translate(89.222358, 245.294172)"><g><path d="M 15.625 -4.90625 C 15.625 -3.1875 14.976562 -1.84375 13.6875 -0.875 C 12.40625 0.09375 10.515625 0.578125 8.015625 0.578125 C 7.066406 0.578125 6.1875 0.507812 5.375 0.375 C 4.5625 0.238281 3.867188 0.03125 3.296875 -0.25 C 2.722656 -0.53125 2.269531 -0.882812 1.9375 -1.3125 C 1.613281 -1.75 1.453125 -2.257812 1.453125 -2.84375 C 1.453125 -3.382812 1.5625 -3.835938 1.78125 -4.203125 C 2.007812 -4.578125 2.285156 -4.890625 2.609375 -5.140625 C 3.253906 -4.773438 4 -4.453125 4.84375 -4.171875 C 5.695312 -3.890625 6.675781 -3.75 7.78125 -3.75 C 8.476562 -3.75 9.007812 -3.847656 9.375 -4.046875 C 9.75 -4.253906 9.9375 -4.53125 9.9375 -4.875 C 9.9375 -5.1875 9.800781 -5.429688 9.53125 -5.609375 C 9.257812 -5.796875 8.8125 -5.941406 8.1875 -6.046875 L 7.171875 -6.25 C 5.210938 -6.632812 3.753906 -7.238281 2.796875 -8.0625 C 1.835938 -8.882812 1.359375 -10.0625 1.359375 -11.59375 C 1.359375 -12.425781 1.535156 -13.179688 1.890625 -13.859375 C 2.253906 -14.535156 2.757812 -15.097656 3.40625 -15.546875 C 4.0625 -16.003906 4.847656 -16.351562 5.765625 -16.59375 C 6.679688 -16.84375 7.691406 -16.96875 8.796875 -16.96875 C 9.628906 -16.96875 10.410156 -16.90625 11.140625 -16.78125 C 11.867188 -16.664062 12.503906 -16.484375 13.046875 -16.234375 C 13.585938 -15.984375 14.015625 -15.660156 14.328125 -15.265625 C 14.648438 -14.867188 14.8125 -14.398438 14.8125 -13.859375 C 14.8125 -13.335938 14.710938 -12.890625 14.515625 -12.515625 C 14.328125 -12.148438 14.085938 -11.84375 13.796875 -11.59375 C 13.617188 -11.707031 13.347656 -11.828125 12.984375 -11.953125 C 12.617188 -12.078125 12.222656 -12.1875 11.796875 -12.28125 C 11.367188 -12.382812 10.9375 -12.46875 10.5 -12.53125 C 10.0625 -12.601562 9.660156 -12.640625 9.296875 -12.640625 C 8.554688 -12.640625 7.984375 -12.554688 7.578125 -12.390625 C 7.171875 -12.222656 6.96875 -11.957031 6.96875 -11.59375 C 6.96875 -11.34375 7.078125 -11.140625 7.296875 -10.984375 C 7.523438 -10.828125 7.957031 -10.679688 8.59375 -10.546875 L 9.640625 -10.3125 C 11.796875 -9.8125 13.332031 -9.128906 14.25 -8.265625 C 15.164062 -7.398438 15.625 -6.28125 15.625 -4.90625 Z M 15.625 -4.90625 "/></g></g></g><g fill="#ff914d" fill-opacity="1"><g transform="translate(105.854442, 245.294172)"><g><path d="M 9.640625 -16.9375 C 10.554688 -16.9375 11.457031 -16.804688 12.34375 -16.546875 C 13.238281 -16.285156 14.015625 -15.898438 14.671875 -15.390625 C 15.347656 -15.835938 16.109375 -16.207031 16.953125 -16.5 C 17.796875 -16.789062 18.816406 -16.9375 20.015625 -16.9375 C 20.867188 -16.9375 21.707031 -16.820312 22.53125 -16.59375 C 23.351562 -16.375 24.085938 -16.019531 24.734375 -15.53125 C 25.378906 -15.050781 25.890625 -14.410156 26.265625 -13.609375 C 26.648438 -12.804688 26.84375 -11.832031 26.84375 -10.6875 L 26.84375 -0.03125 C 26.625 0.03125 26.269531 0.09375 25.78125 0.15625 C 25.300781 0.226562 24.800781 0.265625 24.28125 0.265625 C 23.78125 0.265625 23.332031 0.226562 22.9375 0.15625 C 22.539062 0.09375 22.207031 -0.0351562 21.9375 -0.234375 C 21.664062 -0.441406 21.457031 -0.71875 21.3125 -1.0625 C 21.164062 -1.414062 21.09375 -1.875 21.09375 -2.4375 L 21.09375 -10.515625 C 21.09375 -11.191406 20.898438 -11.679688 20.515625 -11.984375 C 20.140625 -12.285156 19.625 -12.4375 18.96875 -12.4375 C 18.65625 -12.4375 18.316406 -12.363281 17.953125 -12.21875 C 17.585938 -12.070312 17.316406 -11.921875 17.140625 -11.765625 C 17.160156 -11.671875 17.171875 -11.582031 17.171875 -11.5 C 17.171875 -11.425781 17.171875 -11.359375 17.171875 -11.296875 L 17.171875 -0.03125 C 16.929688 0.03125 16.566406 0.09375 16.078125 0.15625 C 15.585938 0.226562 15.097656 0.265625 14.609375 0.265625 C 14.109375 0.265625 13.660156 0.226562 13.265625 0.15625 C 12.878906 0.09375 12.550781 -0.0351562 12.28125 -0.234375 C 12.007812 -0.441406 11.796875 -0.71875 11.640625 -1.0625 C 11.492188 -1.414062 11.421875 -1.875 11.421875 -2.4375 L 11.421875 -10.515625 C 11.421875 -11.191406 11.210938 -11.679688 10.796875 -11.984375 C 10.378906 -12.285156 9.878906 -12.4375 9.296875 -12.4375 C 8.890625 -12.4375 8.539062 -12.375 8.25 -12.25 C 7.957031 -12.132812 7.707031 -12.019531 7.5 -11.90625 L 7.5 -0.03125 C 7.28125 0.03125 6.925781 0.09375 6.4375 0.15625 C 5.957031 0.226562 5.457031 0.265625 4.9375 0.265625 C 4.4375 0.265625 3.988281 0.226562 3.59375 0.15625 C 3.207031 0.09375 2.878906 -0.0351562 2.609375 -0.234375 C 2.335938 -0.441406 2.128906 -0.71875 1.984375 -1.0625 C 1.835938 -1.414062 1.765625 -1.875 1.765625 -2.4375 L 1.765625 -12.640625 C 1.765625 -13.253906 1.890625 -13.738281 2.140625 -14.09375 C 2.398438 -14.457031 2.757812 -14.796875 3.21875 -15.109375 C 3.976562 -15.648438 4.925781 -16.085938 6.0625 -16.421875 C 7.207031 -16.765625 8.398438 -16.9375 9.640625 -16.9375 Z M 9.640625 -16.9375 "/></g></g></g><g fill="#ff914d" fill-opacity="1"><g transform="translate(134.453524, 245.294172)"><g><path d="M 8.796875 -3.65625 C 9.171875 -3.65625 9.585938 -3.691406 10.046875 -3.765625 C 10.515625 -3.847656 10.863281 -3.957031 11.09375 -4.09375 L 11.09375 -6.796875 L 8.65625 -6.59375 C 8.019531 -6.550781 7.5 -6.414062 7.09375 -6.1875 C 6.6875 -5.957031 6.484375 -5.617188 6.484375 -5.171875 C 6.484375 -4.722656 6.660156 -4.359375 7.015625 -4.078125 C 7.367188 -3.796875 7.960938 -3.65625 8.796875 -3.65625 Z M 8.515625 -16.9375 C 9.734375 -16.9375 10.84375 -16.8125 11.84375 -16.5625 C 12.851562 -16.320312 13.710938 -15.945312 14.421875 -15.4375 C 15.128906 -14.925781 15.675781 -14.28125 16.0625 -13.5 C 16.445312 -12.726562 16.640625 -11.8125 16.640625 -10.75 L 16.640625 -3.171875 C 16.640625 -2.585938 16.472656 -2.109375 16.140625 -1.734375 C 15.816406 -1.367188 15.429688 -1.050781 14.984375 -0.78125 C 13.515625 0.101562 11.453125 0.546875 8.796875 0.546875 C 7.597656 0.546875 6.519531 0.429688 5.5625 0.203125 C 4.601562 -0.0234375 3.78125 -0.363281 3.09375 -0.8125 C 2.40625 -1.257812 1.875 -1.832031 1.5 -2.53125 C 1.132812 -3.226562 0.953125 -4.039062 0.953125 -4.96875 C 0.953125 -6.519531 1.410156 -7.710938 2.328125 -8.546875 C 3.253906 -9.390625 4.6875 -9.910156 6.625 -10.109375 L 11.0625 -10.578125 L 11.0625 -10.8125 C 11.0625 -11.46875 10.769531 -11.9375 10.1875 -12.21875 C 9.613281 -12.5 8.785156 -12.640625 7.703125 -12.640625 C 6.847656 -12.640625 6.015625 -12.550781 5.203125 -12.375 C 4.390625 -12.195312 3.660156 -11.972656 3.015625 -11.703125 C 2.710938 -11.898438 2.460938 -12.207031 2.265625 -12.625 C 2.066406 -13.039062 1.96875 -13.476562 1.96875 -13.9375 C 1.96875 -14.519531 2.109375 -14.984375 2.390625 -15.328125 C 2.671875 -15.679688 3.101562 -15.984375 3.6875 -16.234375 C 4.34375 -16.484375 5.113281 -16.660156 6 -16.765625 C 6.894531 -16.878906 7.734375 -16.9375 8.515625 -16.9375 Z M 8.515625 -16.9375 "/></g></g></g><g fill="#ff914d" fill-opacity="1"><g transform="translate(152.843486, 245.294172)"><g><path d="M 7.5 -0.03125 C 7.28125 0.03125 6.925781 0.09375 6.4375 0.15625 C 5.957031 0.226562 5.457031 0.265625 4.9375 0.265625 C 4.4375 0.265625 3.988281 0.226562 3.59375 0.15625 C 3.207031 0.09375 2.878906 -0.0351562 2.609375 -0.234375 C 2.335938 -0.441406 2.128906 -0.71875 1.984375 -1.0625 C 1.835938 -1.414062 1.765625 -1.875 1.765625 -2.4375 L 1.765625 -12.578125 C 1.765625 -13.097656 1.859375 -13.539062 2.046875 -13.90625 C 2.234375 -14.28125 2.507812 -14.613281 2.875 -14.90625 C 3.238281 -15.195312 3.679688 -15.460938 4.203125 -15.703125 C 4.734375 -15.941406 5.300781 -16.148438 5.90625 -16.328125 C 6.519531 -16.515625 7.15625 -16.65625 7.8125 -16.75 C 8.46875 -16.851562 9.117188 -16.90625 9.765625 -16.90625 C 10.847656 -16.90625 11.703125 -16.695312 12.328125 -16.28125 C 12.960938 -15.863281 13.28125 -15.179688 13.28125 -14.234375 C 13.28125 -13.921875 13.234375 -13.609375 13.140625 -13.296875 C 13.054688 -12.992188 12.945312 -12.722656 12.8125 -12.484375 C 12.34375 -12.484375 11.859375 -12.457031 11.359375 -12.40625 C 10.859375 -12.363281 10.375 -12.296875 9.90625 -12.203125 C 9.4375 -12.117188 8.992188 -12.023438 8.578125 -11.921875 C 8.160156 -11.816406 7.800781 -11.695312 7.5 -11.5625 Z M 7.5 -0.03125 "/></g></g></g><g fill="#ff914d" fill-opacity="1"><g transform="translate(166.737365, 245.294172)"><g><path d="M 7.5 -5.640625 C 7.5 -5.054688 7.6875 -4.640625 8.0625 -4.390625 C 8.4375 -4.148438 8.960938 -4.03125 9.640625 -4.03125 C 9.972656 -4.03125 10.316406 -4.054688 10.671875 -4.109375 C 11.035156 -4.160156 11.351562 -4.234375 11.625 -4.328125 C 11.832031 -4.078125 12.007812 -3.800781 12.15625 -3.5 C 12.300781 -3.195312 12.375 -2.832031 12.375 -2.40625 C 12.375 -1.539062 12.050781 -0.835938 11.40625 -0.296875 C 10.769531 0.234375 9.640625 0.5 8.015625 0.5 C 6.023438 0.5 4.492188 0.0507812 3.421875 -0.84375 C 2.359375 -1.75 1.828125 -3.210938 1.828125 -5.234375 L 1.828125 -19.71875 C 2.078125 -19.78125 2.429688 -19.847656 2.890625 -19.921875 C 3.347656 -20.003906 3.835938 -20.046875 4.359375 -20.046875 C 5.347656 -20.046875 6.117188 -19.867188 6.671875 -19.515625 C 7.222656 -19.171875 7.5 -18.4375 7.5 -17.3125 L 7.5 -15.140625 L 11.9375 -15.140625 C 12.070312 -14.898438 12.203125 -14.59375 12.328125 -14.21875 C 12.453125 -13.84375 12.515625 -13.429688 12.515625 -12.984375 C 12.515625 -12.191406 12.335938 -11.617188 11.984375 -11.265625 C 11.640625 -10.921875 11.171875 -10.75 10.578125 -10.75 L 7.5 -10.75 Z M 7.5 -5.640625 "/></g></g></g><g fill="#38b6ff" fill-opacity="1"><g transform="translate(181.521101, 245.294172)"><g><path d="M 15.625 -4.90625 C 15.625 -3.1875 14.976562 -1.84375 13.6875 -0.875 C 12.40625 0.09375 10.515625 0.578125 8.015625 0.578125 C 7.066406 0.578125 6.1875 0.507812 5.375 0.375 C 4.5625 0.238281 3.867188 0.03125 3.296875 -0.25 C 2.722656 -0.53125 2.269531 -0.882812 1.9375 -1.3125 C 1.613281 -1.75 1.453125 -2.257812 1.453125 -2.84375 C 1.453125 -3.382812 1.5625 -3.835938 1.78125 -4.203125 C 2.007812 -4.578125 2.285156 -4.890625 2.609375 -5.140625 C 3.253906 -4.773438 4 -4.453125 4.84375 -4.171875 C 5.695312 -3.890625 6.675781 -3.75 7.78125 -3.75 C 8.476562 -3.75 9.007812 -3.847656 9.375 -4.046875 C 9.75 -4.253906 9.9375 -4.53125 9.9375 -4.875 C 9.9375 -5.1875 9.800781 -5.429688 9.53125 -5.609375 C 9.257812 -5.796875 8.8125 -5.941406 8.1875 -6.046875 L 7.171875 -6.25 C 5.210938 -6.632812 3.753906 -7.238281 2.796875 -8.0625 C 1.835938 -8.882812 1.359375 -10.0625 1.359375 -11.59375 C 1.359375 -12.425781 1.535156 -13.179688 1.890625 -13.859375 C 2.253906 -14.535156 2.757812 -15.097656 3.40625 -15.546875 C 4.0625 -16.003906 4.847656 -16.351562 5.765625 -16.59375 C 6.679688 -16.84375 7.691406 -16.96875 8.796875 -16.96875 C 9.628906 -16.96875 10.410156 -16.90625 11.140625 -16.78125 C 11.867188 -16.664062 12.503906 -16.484375 13.046875 -16.234375 C 13.585938 -15.984375 14.015625 -15.660156 14.328125 -15.265625 C 14.648438 -14.867188 14.8125 -14.398438 14.8125 -13.859375 C 14.8125 -13.335938 14.710938 -12.890625 14.515625 -12.515625 C 14.328125 -12.148438 14.085938 -11.84375 13.796875 -11.59375 C 13.617188 -11.707031 13.347656 -11.828125 12.984375 -11.953125 C 12.617188 -12.078125 12.222656 -12.1875 11.796875 -12.28125 C 11.367188 -12.382812 10.9375 -12.46875 10.5 -12.53125 C 10.0625 -12.601562 9.660156 -12.640625 9.296875 -12.640625 C 8.554688 -12.640625 7.984375 -12.554688 7.578125 -12.390625 C 7.171875 -12.222656 6.96875 -11.957031 6.96875 -11.59375 C 6.96875 -11.34375 7.078125 -11.140625 7.296875 -10.984375 C 7.523438 -10.828125 7.957031 -10.679688 8.59375 -10.546875 L 9.640625 -10.3125 C 11.796875 -9.8125 13.332031 -9.128906 14.25 -8.265625 C 15.164062 -7.398438 15.625 -6.28125 15.625 -4.90625 Z M 15.625 -4.90625 "/></g></g></g><g fill="#38b6ff" fill-opacity="1"><g transform="translate(198.153185, 245.294172)"><g><path d="M 7.5 -5.640625 C 7.5 -5.054688 7.6875 -4.640625 8.0625 -4.390625 C 8.4375 -4.148438 8.960938 -4.03125 9.640625 -4.03125 C 9.972656 -4.03125 10.316406 -4.054688 10.671875 -4.109375 C 11.035156 -4.160156 11.351562 -4.234375 11.625 -4.328125 C 11.832031 -4.078125 12.007812 -3.800781 12.15625 -3.5 C 12.300781 -3.195312 12.375 -2.832031 12.375 -2.40625 C 12.375 -1.539062 12.050781 -0.835938 11.40625 -0.296875 C 10.769531 0.234375 9.640625 0.5 8.015625 0.5 C 6.023438 0.5 4.492188 0.0507812 3.421875 -0.84375 C 2.359375 -1.75 1.828125 -3.210938 1.828125 -5.234375 L 1.828125 -19.71875 C 2.078125 -19.78125 2.429688 -19.847656 2.890625 -19.921875 C 3.347656 -20.003906 3.835938 -20.046875 4.359375 -20.046875 C 5.347656 -20.046875 6.117188 -19.867188 6.671875 -19.515625 C 7.222656 -19.171875 7.5 -18.4375 7.5 -17.3125 L 7.5 -15.140625 L 11.9375 -15.140625 C 12.070312 -14.898438 12.203125 -14.59375 12.328125 -14.21875 C 12.453125 -13.84375 12.515625 -13.429688 12.515625 -12.984375 C 12.515625 -12.191406 12.335938 -11.617188 11.984375 -11.265625 C 11.640625 -10.921875 11.171875 -10.75 10.578125 -10.75 L 7.5 -10.75 Z M 7.5 -5.640625 "/></g></g></g><g fill="#38b6ff" fill-opacity="1"><g transform="translate(211.675206, 245.294172)"><g><path d="M 1.765625 -16.203125 C 1.984375 -16.265625 2.332031 -16.328125 2.8125 -16.390625 C 3.300781 -16.460938 3.804688 -16.5 4.328125 -16.5 C 4.828125 -16.5 5.269531 -16.460938 5.65625 -16.390625 C 6.050781 -16.328125 6.382812 -16.191406 6.65625 -15.984375 C 6.925781 -15.785156 7.132812 -15.507812 7.28125 -15.15625 C 7.425781 -14.8125 7.5 -14.359375 7.5 -13.796875 L 7.5 -6.53125 C 7.5 -5.601562 7.722656 -4.941406 8.171875 -4.546875 C 8.628906 -4.148438 9.285156 -3.953125 10.140625 -3.953125 C 10.660156 -3.953125 11.082031 -4 11.40625 -4.09375 C 11.738281 -4.1875 11.992188 -4.273438 12.171875 -4.359375 L 12.171875 -16.203125 C 12.398438 -16.265625 12.753906 -16.328125 13.234375 -16.390625 C 13.722656 -16.460938 14.226562 -16.5 14.75 -16.5 C 15.238281 -16.5 15.679688 -16.460938 16.078125 -16.390625 C 16.472656 -16.328125 16.804688 -16.191406 17.078125 -15.984375 C 17.347656 -15.785156 17.554688 -15.507812 17.703125 -15.15625 C 17.847656 -14.8125 17.921875 -14.359375 17.921875 -13.796875 L 17.921875 -3.515625 C 17.921875 -2.390625 17.445312 -1.546875 16.5 -0.984375 C 15.707031 -0.484375 14.765625 -0.101562 13.671875 0.15625 C 12.578125 0.414062 11.390625 0.546875 10.109375 0.546875 C 8.890625 0.546875 7.765625 0.410156 6.734375 0.140625 C 5.710938 -0.128906 4.828125 -0.546875 4.078125 -1.109375 C 3.335938 -1.679688 2.765625 -2.410156 2.359375 -3.296875 C 1.960938 -4.179688 1.765625 -5.257812 1.765625 -6.53125 Z M 1.765625 -16.203125 "/></g></g></g><g fill="#38b6ff" fill-opacity="1"><g transform="translate(231.349745, 245.294172)"><g><path d="M 1.046875 -8.21875 C 1.046875 -9.707031 1.269531 -11 1.71875 -12.09375 C 2.175781 -13.1875 2.800781 -14.09375 3.59375 -14.8125 C 4.394531 -15.53125 5.332031 -16.0625 6.40625 -16.40625 C 7.476562 -16.757812 8.632812 -16.9375 9.875 -16.9375 C 10.320312 -16.9375 10.757812 -16.894531 11.1875 -16.8125 C 11.613281 -16.738281 11.960938 -16.644531 12.234375 -16.53125 L 12.234375 -22.015625 C 12.460938 -22.078125 12.820312 -22.144531 13.3125 -22.21875 C 13.8125 -22.300781 14.320312 -22.34375 14.84375 -22.34375 C 15.34375 -22.34375 15.785156 -22.304688 16.171875 -22.234375 C 16.566406 -22.171875 16.898438 -22.035156 17.171875 -21.828125 C 17.441406 -21.628906 17.644531 -21.351562 17.78125 -21 C 17.914062 -20.65625 17.984375 -20.203125 17.984375 -19.640625 L 17.984375 -3.625 C 17.984375 -2.5625 17.488281 -1.710938 16.5 -1.078125 C 15.84375 -0.648438 14.992188 -0.273438 13.953125 0.046875 C 12.921875 0.378906 11.726562 0.546875 10.375 0.546875 C 8.914062 0.546875 7.601562 0.34375 6.4375 -0.0625 C 5.28125 -0.46875 4.300781 -1.050781 3.5 -1.8125 C 2.695312 -2.582031 2.085938 -3.503906 1.671875 -4.578125 C 1.253906 -5.648438 1.046875 -6.863281 1.046875 -8.21875 Z M 10.65625 -12.4375 C 9.4375 -12.4375 8.5 -12.085938 7.84375 -11.390625 C 7.1875 -10.691406 6.859375 -9.632812 6.859375 -8.21875 C 6.859375 -6.820312 7.160156 -5.765625 7.765625 -5.046875 C 8.378906 -4.335938 9.265625 -3.984375 10.421875 -3.984375 C 10.816406 -3.984375 11.175781 -4.046875 11.5 -4.171875 C 11.832031 -4.296875 12.09375 -4.4375 12.28125 -4.59375 L 12.28125 -12.03125 C 11.820312 -12.300781 11.28125 -12.4375 10.65625 -12.4375 Z M 10.65625 -12.4375 "/></g></g></g><g fill="#38b6ff" fill-opacity="1"><g transform="translate(251.159515, 245.294172)"><g><path d="M 4.328125 -4.1875 C 4.078125 -4.75 3.8125 -5.378906 3.53125 -6.078125 C 3.25 -6.785156 2.957031 -7.585938 2.65625 -8.484375 C 2.351562 -9.390625 2.035156 -10.421875 1.703125 -11.578125 C 1.378906 -12.742188 1.035156 -14.082031 0.671875 -15.59375 C 0.992188 -15.90625 1.414062 -16.175781 1.9375 -16.40625 C 2.46875 -16.644531 3.050781 -16.765625 3.6875 -16.765625 C 4.476562 -16.765625 5.128906 -16.601562 5.640625 -16.28125 C 6.160156 -15.957031 6.546875 -15.34375 6.796875 -14.4375 L 9.46875 -5.140625 L 9.609375 -5.140625 C 9.878906 -5.910156 10.140625 -6.742188 10.390625 -7.640625 C 10.648438 -8.546875 10.90625 -9.476562 11.15625 -10.4375 C 11.40625 -11.394531 11.632812 -12.351562 11.84375 -13.3125 C 12.0625 -14.269531 12.25 -15.207031 12.40625 -16.125 C 13.21875 -16.550781 14.109375 -16.765625 15.078125 -16.765625 C 15.867188 -16.765625 16.519531 -16.59375 17.03125 -16.25 C 17.550781 -15.914062 17.8125 -15.332031 17.8125 -14.5 C 17.8125 -13.894531 17.734375 -13.191406 17.578125 -12.390625 C 17.421875 -11.585938 17.210938 -10.734375 16.953125 -9.828125 C 16.691406 -8.929688 16.382812 -8.003906 16.03125 -7.046875 C 15.6875 -6.085938 15.320312 -5.144531 14.9375 -4.21875 C 14.5625 -3.300781 14.171875 -2.429688 13.765625 -1.609375 C 13.359375 -0.785156 12.960938 -0.046875 12.578125 0.609375 C 11.941406 1.710938 11.351562 2.613281 10.8125 3.3125 C 10.28125 4.007812 9.765625 4.554688 9.265625 4.953125 C 8.765625 5.347656 8.265625 5.617188 7.765625 5.765625 C 7.273438 5.910156 6.757812 5.984375 6.21875 5.984375 C 5.269531 5.984375 4.503906 5.703125 3.921875 5.140625 C 3.335938 4.578125 2.988281 3.84375 2.875 2.9375 C 3.59375 2.375 4.3125 1.75 5.03125 1.0625 C 5.757812 0.375 6.414062 -0.328125 7 -1.046875 C 6.613281 -1.160156 6.203125 -1.425781 5.765625 -1.84375 C 5.328125 -2.257812 4.847656 -3.039062 4.328125 -4.1875 Z M 4.328125 -4.1875 "/></g></g></g><g fill="#545454" fill-opacity="1"><g transform="translate(95.742406, 267.090922)"><g><path d="M 6.390625 -8.8125 L 6.390625 -7.875 L 4 -7.875 L 4 0 L 2.84375 0 L 2.84375 -7.875 L 0.4375 -7.875 L 0.4375 -8.8125 Z M 6.390625 -8.8125 "/></g></g></g><g fill="#545454" fill-opacity="1"><g transform="translate(102.573245, 267.090922)"><g><path d="M 2.125 -5.796875 C 2.320312 -6.191406 2.609375 -6.5 2.984375 -6.71875 C 3.359375 -6.9375 3.816406 -7.046875 4.359375 -7.046875 L 4.359375 -5.859375 L 4.0625 -5.859375 C 2.769531 -5.859375 2.125 -5.160156 2.125 -3.765625 L 2.125 0 L 0.96875 0 L 0.96875 -6.921875 L 2.125 -6.921875 Z M 2.125 -5.796875 "/></g></g></g><g fill="#545454" fill-opacity="1"><g transform="translate(107.282857, 267.090922)"><g><path d="M 7.109375 -6.921875 L 7.109375 0 L 5.96875 0 L 5.96875 -1.03125 C 5.75 -0.675781 5.441406 -0.398438 5.046875 -0.203125 C 4.660156 -0.00390625 4.226562 0.09375 3.75 0.09375 C 3.207031 0.09375 2.722656 -0.015625 2.296875 -0.234375 C 1.867188 -0.453125 1.53125 -0.785156 1.28125 -1.234375 C 1.03125 -1.679688 0.90625 -2.226562 0.90625 -2.875 L 0.90625 -6.921875 L 2.046875 -6.921875 L 2.046875 -3.015625 C 2.046875 -2.335938 2.21875 -1.8125 2.5625 -1.4375 C 2.90625 -1.070312 3.378906 -0.890625 3.984375 -0.890625 C 4.597656 -0.890625 5.082031 -1.078125 5.4375 -1.453125 C 5.789062 -1.835938 5.96875 -2.394531 5.96875 -3.125 L 5.96875 -6.921875 Z M 7.109375 -6.921875 "/></g></g></g><g fill="#545454" fill-opacity="1"><g transform="translate(115.3637, 267.090922)"><g><path d="M 3.421875 0.109375 C 2.890625 0.109375 2.410156 0.0195312 1.984375 -0.15625 C 1.566406 -0.34375 1.234375 -0.597656 0.984375 -0.921875 C 0.742188 -1.242188 0.613281 -1.613281 0.59375 -2.03125 L 1.78125 -2.03125 C 1.8125 -1.6875 1.972656 -1.40625 2.265625 -1.1875 C 2.554688 -0.96875 2.9375 -0.859375 3.40625 -0.859375 C 3.84375 -0.859375 4.1875 -0.953125 4.4375 -1.140625 C 4.695312 -1.335938 4.828125 -1.585938 4.828125 -1.890625 C 4.828125 -2.191406 4.691406 -2.414062 4.421875 -2.5625 C 4.148438 -2.707031 3.734375 -2.851562 3.171875 -3 C 2.660156 -3.132812 2.238281 -3.269531 1.90625 -3.40625 C 1.582031 -3.539062 1.304688 -3.742188 1.078125 -4.015625 C 0.847656 -4.296875 0.734375 -4.660156 0.734375 -5.109375 C 0.734375 -5.460938 0.835938 -5.785156 1.046875 -6.078125 C 1.253906 -6.367188 1.550781 -6.601562 1.9375 -6.78125 C 2.332031 -6.957031 2.78125 -7.046875 3.28125 -7.046875 C 4.039062 -7.046875 4.65625 -6.847656 5.125 -6.453125 C 5.601562 -6.066406 5.859375 -5.535156 5.890625 -4.859375 L 4.734375 -4.859375 C 4.710938 -5.222656 4.566406 -5.515625 4.296875 -5.734375 C 4.035156 -5.953125 3.679688 -6.0625 3.234375 -6.0625 C 2.816406 -6.0625 2.488281 -5.972656 2.25 -5.796875 C 2.007812 -5.617188 1.890625 -5.390625 1.890625 -5.109375 C 1.890625 -4.878906 1.960938 -4.691406 2.109375 -4.546875 C 2.253906 -4.398438 2.4375 -4.28125 2.65625 -4.1875 C 2.882812 -4.101562 3.195312 -4.003906 3.59375 -3.890625 C 4.082031 -3.753906 4.484375 -3.617188 4.796875 -3.484375 C 5.109375 -3.359375 5.375 -3.164062 5.59375 -2.90625 C 5.820312 -2.644531 5.941406 -2.304688 5.953125 -1.890625 C 5.953125 -1.503906 5.847656 -1.160156 5.640625 -0.859375 C 5.429688 -0.554688 5.132812 -0.316406 4.75 -0.140625 C 4.363281 0.0234375 3.921875 0.109375 3.421875 0.109375 Z M 3.421875 0.109375 "/></g></g></g><g fill="#545454" fill-opacity="1"><g transform="translate(121.95464, 267.090922)"><g><path d="M 2.375 -5.984375 L 2.375 -1.890625 C 2.375 -1.554688 2.445312 -1.316406 2.59375 -1.171875 C 2.738281 -1.035156 2.988281 -0.96875 3.34375 -0.96875 L 4.1875 -0.96875 L 4.1875 0 L 3.140625 0 C 2.503906 0 2.023438 -0.144531 1.703125 -0.4375 C 1.378906 -0.738281 1.21875 -1.222656 1.21875 -1.890625 L 1.21875 -5.984375 L 0.328125 -5.984375 L 0.328125 -6.921875 L 1.21875 -6.921875 L 1.21875 -8.671875 L 2.375 -8.671875 L 2.375 -6.921875 L 4.1875 -6.921875 L 4.1875 -5.984375 Z M 2.375 -5.984375 "/></g></g></g><g fill="#545454" fill-opacity="1"><g transform="translate(126.550617, 267.090922)"><g><path d="M 7.296875 -3.734375 C 7.296875 -3.515625 7.28125 -3.28125 7.25 -3.03125 L 1.71875 -3.03125 C 1.757812 -2.351562 1.992188 -1.820312 2.421875 -1.4375 C 2.847656 -1.050781 3.363281 -0.859375 3.96875 -0.859375 C 4.46875 -0.859375 4.882812 -0.972656 5.21875 -1.203125 C 5.550781 -1.441406 5.785156 -1.753906 5.921875 -2.140625 L 7.15625 -2.140625 C 6.96875 -1.472656 6.59375 -0.929688 6.03125 -0.515625 C 5.476562 -0.0976562 4.789062 0.109375 3.96875 0.109375 C 3.3125 0.109375 2.722656 -0.0351562 2.203125 -0.328125 C 1.679688 -0.617188 1.273438 -1.035156 0.984375 -1.578125 C 0.691406 -2.128906 0.546875 -2.757812 0.546875 -3.46875 C 0.546875 -4.1875 0.6875 -4.816406 0.96875 -5.359375 C 1.257812 -5.898438 1.660156 -6.316406 2.171875 -6.609375 C 2.691406 -6.898438 3.289062 -7.046875 3.96875 -7.046875 C 4.625 -7.046875 5.203125 -6.898438 5.703125 -6.609375 C 6.210938 -6.328125 6.601562 -5.929688 6.875 -5.421875 C 7.15625 -4.921875 7.296875 -4.359375 7.296875 -3.734375 Z M 6.109375 -3.96875 C 6.109375 -4.40625 6.007812 -4.78125 5.8125 -5.09375 C 5.625 -5.414062 5.363281 -5.65625 5.03125 -5.8125 C 4.695312 -5.976562 4.328125 -6.0625 3.921875 -6.0625 C 3.335938 -6.0625 2.835938 -5.875 2.421875 -5.5 C 2.015625 -5.132812 1.785156 -4.625 1.734375 -3.96875 Z M 6.109375 -3.96875 "/></g></g></g><g fill="#545454" fill-opacity="1"><g transform="translate(134.378931, 267.090922)"><g><path d="M 0.546875 -3.484375 C 0.546875 -4.191406 0.6875 -4.8125 0.96875 -5.34375 C 1.257812 -5.882812 1.65625 -6.300781 2.15625 -6.59375 C 2.65625 -6.894531 3.21875 -7.046875 3.84375 -7.046875 C 4.382812 -7.046875 4.882812 -6.921875 5.34375 -6.671875 C 5.8125 -6.421875 6.164062 -6.09375 6.40625 -5.6875 L 6.40625 -9.359375 L 7.578125 -9.359375 L 7.578125 0 L 6.40625 0 L 6.40625 -1.296875 C 6.175781 -0.890625 5.835938 -0.550781 5.390625 -0.28125 C 4.953125 -0.0195312 4.429688 0.109375 3.828125 0.109375 C 3.210938 0.109375 2.65625 -0.0390625 2.15625 -0.34375 C 1.65625 -0.644531 1.257812 -1.066406 0.96875 -1.609375 C 0.6875 -2.160156 0.546875 -2.785156 0.546875 -3.484375 Z M 6.40625 -3.46875 C 6.40625 -4 6.300781 -4.457031 6.09375 -4.84375 C 5.882812 -5.226562 5.597656 -5.523438 5.234375 -5.734375 C 4.878906 -5.941406 4.488281 -6.046875 4.0625 -6.046875 C 3.625 -6.046875 3.226562 -5.941406 2.875 -5.734375 C 2.519531 -5.535156 2.238281 -5.238281 2.03125 -4.84375 C 1.820312 -4.457031 1.71875 -4.003906 1.71875 -3.484375 C 1.71875 -2.953125 1.820312 -2.488281 2.03125 -2.09375 C 2.238281 -1.707031 2.519531 -1.410156 2.875 -1.203125 C 3.226562 -0.992188 3.625 -0.890625 4.0625 -0.890625 C 4.488281 -0.890625 4.878906 -0.992188 5.234375 -1.203125 C 5.597656 -1.410156 5.882812 -1.707031 6.09375 -2.09375 C 6.300781 -2.488281 6.40625 -2.945312 6.40625 -3.46875 Z M 6.40625 -3.46875 "/></g></g></g><g fill="#545454" fill-opacity="1"><g transform="translate(142.914325, 267.090922)"><g/></g></g><g fill="#545454" fill-opacity="1"><g transform="translate(146.285558, 267.090922)"><g><path d="M 2.125 -0.9375 L 5.203125 -0.9375 L 5.203125 0 L 0.96875 0 L 0.96875 -8.8125 L 2.125 -8.8125 Z M 2.125 -0.9375 "/></g></g></g><g fill="#545454" fill-opacity="1"><g transform="translate(151.740127, 267.090922)"><g><path d="M 7.296875 -3.734375 C 7.296875 -3.515625 7.28125 -3.28125 7.25 -3.03125 L 1.71875 -3.03125 C 1.757812 -2.351562 1.992188 -1.820312 2.421875 -1.4375 C 2.847656 -1.050781 3.363281 -0.859375 3.96875 -0.859375 C 4.46875 -0.859375 4.882812 -0.972656 5.21875 -1.203125 C 5.550781 -1.441406 5.785156 -1.753906 5.921875 -2.140625 L 7.15625 -2.140625 C 6.96875 -1.472656 6.59375 -0.929688 6.03125 -0.515625 C 5.476562 -0.0976562 4.789062 0.109375 3.96875 0.109375 C 3.3125 0.109375 2.722656 -0.0351562 2.203125 -0.328125 C 1.679688 -0.617188 1.273438 -1.035156 0.984375 -1.578125 C 0.691406 -2.128906 0.546875 -2.757812 0.546875 -3.46875 C 0.546875 -4.1875 0.6875 -4.816406 0.96875 -5.359375 C 1.257812 -5.898438 1.660156 -6.316406 2.171875 -6.609375 C 2.691406 -6.898438 3.289062 -7.046875 3.96875 -7.046875 C 4.625 -7.046875 5.203125 -6.898438 5.703125 -6.609375 C 6.210938 -6.328125 6.601562 -5.929688 6.875 -5.421875 C 7.15625 -4.921875 7.296875 -4.359375 7.296875 -3.734375 Z M 6.109375 -3.96875 C 6.109375 -4.40625 6.007812 -4.78125 5.8125 -5.09375 C 5.625 -5.414062 5.363281 -5.65625 5.03125 -5.8125 C 4.695312 -5.976562 4.328125 -6.0625 3.921875 -6.0625 C 3.335938 -6.0625 2.835938 -5.875 2.421875 -5.5 C 2.015625 -5.132812 1.785156 -4.625 1.734375 -3.96875 Z M 6.109375 -3.96875 "/></g></g></g><g fill="#545454" fill-opacity="1"><g transform="translate(159.568442, 267.090922)"><g><path d="M 0.546875 -3.484375 C 0.546875 -4.191406 0.6875 -4.8125 0.96875 -5.34375 C 1.257812 -5.882812 1.65625 -6.300781 2.15625 -6.59375 C 2.65625 -6.894531 3.210938 -7.046875 3.828125 -7.046875 C 4.429688 -7.046875 4.957031 -6.910156 5.40625 -6.640625 C 5.851562 -6.378906 6.1875 -6.050781 6.40625 -5.65625 L 6.40625 -6.921875 L 7.578125 -6.921875 L 7.578125 0 L 6.40625 0 L 6.40625 -1.296875 C 6.175781 -0.890625 5.835938 -0.550781 5.390625 -0.28125 C 4.941406 -0.0195312 4.414062 0.109375 3.8125 0.109375 C 3.195312 0.109375 2.640625 -0.0390625 2.140625 -0.34375 C 1.648438 -0.644531 1.257812 -1.066406 0.96875 -1.609375 C 0.6875 -2.160156 0.546875 -2.785156 0.546875 -3.484375 Z M 6.40625 -3.46875 C 6.40625 -4 6.300781 -4.457031 6.09375 -4.84375 C 5.882812 -5.226562 5.597656 -5.523438 5.234375 -5.734375 C 4.878906 -5.941406 4.488281 -6.046875 4.0625 -6.046875 C 3.625 -6.046875 3.226562 -5.941406 2.875 -5.734375 C 2.519531 -5.535156 2.238281 -5.238281 2.03125 -4.84375 C 1.820312 -4.457031 1.71875 -4.003906 1.71875 -3.484375 C 1.71875 -2.953125 1.820312 -2.488281 2.03125 -2.09375 C 2.238281 -1.707031 2.519531 -1.410156 2.875 -1.203125 C 3.226562 -0.992188 3.625 -0.890625 4.0625 -0.890625 C 4.488281 -0.890625 4.878906 -0.992188 5.234375 -1.203125 C 5.597656 -1.410156 5.882812 -1.707031 6.09375 -2.09375 C 6.300781 -2.488281 6.40625 -2.945312 6.40625 -3.46875 Z M 6.40625 -3.46875 "/></g></g></g><g fill="#545454" fill-opacity="1"><g transform="translate(168.103836, 267.090922)"><g><path d="M 2.125 -5.796875 C 2.320312 -6.191406 2.609375 -6.5 2.984375 -6.71875 C 3.359375 -6.9375 3.816406 -7.046875 4.359375 -7.046875 L 4.359375 -5.859375 L 4.0625 -5.859375 C 2.769531 -5.859375 2.125 -5.160156 2.125 -3.765625 L 2.125 0 L 0.96875 0 L 0.96875 -6.921875 L 2.125 -6.921875 Z M 2.125 -5.796875 "/></g></g></g><g fill="#545454" fill-opacity="1"><g transform="translate(172.813447, 267.090922)"><g><path d="M 4.34375 -7.046875 C 5.1875 -7.046875 5.867188 -6.789062 6.390625 -6.28125 C 6.921875 -5.78125 7.1875 -5.046875 7.1875 -4.078125 L 7.1875 0 L 6.046875 0 L 6.046875 -3.921875 C 6.046875 -4.609375 5.867188 -5.132812 5.515625 -5.5 C 5.171875 -5.875 4.703125 -6.0625 4.109375 -6.0625 C 3.503906 -6.0625 3.019531 -5.867188 2.65625 -5.484375 C 2.300781 -5.109375 2.125 -4.554688 2.125 -3.828125 L 2.125 0 L 0.96875 0 L 0.96875 -6.921875 L 2.125 -6.921875 L 2.125 -5.9375 C 2.351562 -6.289062 2.660156 -6.5625 3.046875 -6.75 C 3.441406 -6.945312 3.875 -7.046875 4.34375 -7.046875 Z M 4.34375 -7.046875 "/></g></g></g><g fill="#545454" fill-opacity="1"><g transform="translate(180.894291, 267.090922)"><g><path d="M 1.5625 -8.046875 C 1.34375 -8.046875 1.15625 -8.117188 1 -8.265625 C 0.851562 -8.421875 0.78125 -8.609375 0.78125 -8.828125 C 0.78125 -9.054688 0.851562 -9.242188 1 -9.390625 C 1.15625 -9.546875 1.34375 -9.625 1.5625 -9.625 C 1.78125 -9.625 1.960938 -9.546875 2.109375 -9.390625 C 2.253906 -9.242188 2.328125 -9.054688 2.328125 -8.828125 C 2.328125 -8.609375 2.253906 -8.421875 2.109375 -8.265625 C 1.960938 -8.117188 1.78125 -8.046875 1.5625 -8.046875 Z M 2.125 -6.921875 L 2.125 0 L 0.96875 0 L 0.96875 -6.921875 Z M 2.125 -6.921875 "/></g></g></g><g fill="#545454" fill-opacity="1"><g transform="translate(184.000364, 267.090922)"><g><path d="M 4.34375 -7.046875 C 5.1875 -7.046875 5.867188 -6.789062 6.390625 -6.28125 C 6.921875 -5.78125 7.1875 -5.046875 7.1875 -4.078125 L 7.1875 0 L 6.046875 0 L 6.046875 -3.921875 C 6.046875 -4.609375 5.867188 -5.132812 5.515625 -5.5 C 5.171875 -5.875 4.703125 -6.0625 4.109375 -6.0625 C 3.503906 -6.0625 3.019531 -5.867188 2.65625 -5.484375 C 2.300781 -5.109375 2.125 -4.554688 2.125 -3.828125 L 2.125 0 L 0.96875 0 L 0.96875 -6.921875 L 2.125 -6.921875 L 2.125 -5.9375 C 2.351562 -6.289062 2.660156 -6.5625 3.046875 -6.75 C 3.441406 -6.945312 3.875 -7.046875 4.34375 -7.046875 Z M 4.34375 -7.046875 "/></g></g></g><g fill="#545454" fill-opacity="1"><g transform="translate(192.081208, 267.090922)"><g><path d="M 3.828125 -7.046875 C 4.429688 -7.046875 4.957031 -6.910156 5.40625 -6.640625 C 5.851562 -6.378906 6.1875 -6.050781 6.40625 -5.65625 L 6.40625 -6.921875 L 7.578125 -6.921875 L 7.578125 0.15625 C 7.578125 0.78125 7.441406 1.335938 7.171875 1.828125 C 6.898438 2.328125 6.515625 2.710938 6.015625 2.984375 C 5.515625 3.265625 4.929688 3.40625 4.265625 3.40625 C 3.347656 3.40625 2.585938 3.191406 1.984375 2.765625 C 1.378906 2.335938 1.019531 1.753906 0.90625 1.015625 L 2.046875 1.015625 C 2.171875 1.429688 2.429688 1.769531 2.828125 2.03125 C 3.222656 2.289062 3.703125 2.421875 4.265625 2.421875 C 4.890625 2.421875 5.398438 2.21875 5.796875 1.8125 C 6.203125 1.414062 6.40625 0.863281 6.40625 0.15625 L 6.40625 -1.296875 C 6.175781 -0.890625 5.835938 -0.550781 5.390625 -0.28125 C 4.953125 -0.0195312 4.429688 0.109375 3.828125 0.109375 C 3.210938 0.109375 2.65625 -0.0390625 2.15625 -0.34375 C 1.65625 -0.644531 1.257812 -1.066406 0.96875 -1.609375 C 0.6875 -2.160156 0.546875 -2.785156 0.546875 -3.484375 C 0.546875 -4.191406 0.6875 -4.8125 0.96875 -5.34375 C 1.257812 -5.882812 1.65625 -6.300781 2.15625 -6.59375 C 2.65625 -6.894531 3.210938 -7.046875 3.828125 -7.046875 Z M 6.40625 -3.46875 C 6.40625 -4 6.300781 -4.457031 6.09375 -4.84375 C 5.882812 -5.226562 5.597656 -5.523438 5.234375 -5.734375 C 4.878906 -5.941406 4.488281 -6.046875 4.0625 -6.046875 C 3.625 -6.046875 3.226562 -5.941406 2.875 -5.734375 C 2.519531 -5.535156 2.238281 -5.238281 2.03125 -4.84375 C 1.820312 -4.457031 1.71875 -4.003906 1.71875 -3.484375 C 1.71875 -2.953125 1.820312 -2.488281 2.03125 -2.09375 C 2.238281 -1.707031 2.519531 -1.410156 2.875 -1.203125 C 3.226562 -0.992188 3.625 -0.890625 4.0625 -0.890625 C 4.488281 -0.890625 4.878906 -0.992188 5.234375 -1.203125 C 5.597656 -1.410156 5.882812 -1.707031 6.09375 -2.09375 C 6.300781 -2.488281 6.40625 -2.945312 6.40625 -3.46875 Z M 6.40625 -3.46875 "/></g></g></g><g fill="#545454" fill-opacity="1"><g transform="translate(200.616602, 267.090922)"><g/></g></g><g fill="#545454" fill-opacity="1"><g transform="translate(203.987835, 267.090922)"><g><path d="M 0.546875 -4.40625 C 0.546875 -5.269531 0.738281 -6.046875 1.125 -6.734375 C 1.507812 -7.421875 2.035156 -7.957031 2.703125 -8.34375 C 3.378906 -8.726562 4.125 -8.921875 4.9375 -8.921875 C 5.90625 -8.921875 6.742188 -8.6875 7.453125 -8.21875 C 8.171875 -7.757812 8.695312 -7.101562 9.03125 -6.25 L 7.640625 -6.25 C 7.398438 -6.78125 7.050781 -7.1875 6.59375 -7.46875 C 6.132812 -7.757812 5.582031 -7.90625 4.9375 -7.90625 C 4.320312 -7.90625 3.769531 -7.757812 3.28125 -7.46875 C 2.789062 -7.1875 2.40625 -6.78125 2.125 -6.25 C 1.851562 -5.726562 1.71875 -5.113281 1.71875 -4.40625 C 1.71875 -3.707031 1.851562 -3.09375 2.125 -2.5625 C 2.40625 -2.039062 2.789062 -1.632812 3.28125 -1.34375 C 3.769531 -1.0625 4.320312 -0.921875 4.9375 -0.921875 C 5.582031 -0.921875 6.132812 -1.0625 6.59375 -1.34375 C 7.050781 -1.625 7.398438 -2.03125 7.640625 -2.5625 L 9.03125 -2.5625 C 8.695312 -1.71875 8.171875 -1.066406 7.453125 -0.609375 C 6.742188 -0.148438 5.90625 0.078125 4.9375 0.078125 C 4.125 0.078125 3.378906 -0.113281 2.703125 -0.5 C 2.035156 -0.882812 1.507812 -1.414062 1.125 -2.09375 C 0.738281 -2.78125 0.546875 -3.550781 0.546875 -4.40625 Z M 0.546875 -4.40625 "/></g></g></g><g fill="#545454" fill-opacity="1"><g transform="translate(213.735356, 267.090922)"><g><path d="M 4 0.109375 C 3.34375 0.109375 2.75 -0.0351562 2.21875 -0.328125 C 1.695312 -0.617188 1.285156 -1.035156 0.984375 -1.578125 C 0.691406 -2.128906 0.546875 -2.757812 0.546875 -3.46875 C 0.546875 -4.175781 0.695312 -4.800781 1 -5.34375 C 1.3125 -5.894531 1.734375 -6.316406 2.265625 -6.609375 C 2.796875 -6.898438 3.390625 -7.046875 4.046875 -7.046875 C 4.703125 -7.046875 5.296875 -6.898438 5.828125 -6.609375 C 6.359375 -6.316406 6.773438 -5.898438 7.078125 -5.359375 C 7.390625 -4.816406 7.546875 -4.1875 7.546875 -3.46875 C 7.546875 -2.757812 7.382812 -2.128906 7.0625 -1.578125 C 6.75 -1.035156 6.320312 -0.617188 5.78125 -0.328125 C 5.25 -0.0351562 4.65625 0.109375 4 0.109375 Z M 4 -0.890625 C 4.40625 -0.890625 4.789062 -0.988281 5.15625 -1.1875 C 5.519531 -1.382812 5.8125 -1.675781 6.03125 -2.0625 C 6.257812 -2.445312 6.375 -2.914062 6.375 -3.46875 C 6.375 -4.03125 6.265625 -4.503906 6.046875 -4.890625 C 5.828125 -5.273438 5.539062 -5.5625 5.1875 -5.75 C 4.832031 -5.945312 4.445312 -6.046875 4.03125 -6.046875 C 3.613281 -6.046875 3.226562 -5.945312 2.875 -5.75 C 2.519531 -5.5625 2.238281 -5.273438 2.03125 -4.890625 C 1.820312 -4.503906 1.71875 -4.03125 1.71875 -3.46875 C 1.71875 -2.90625 1.820312 -2.429688 2.03125 -2.046875 C 2.238281 -1.660156 2.515625 -1.367188 2.859375 -1.171875 C 3.203125 -0.984375 3.582031 -0.890625 4 -0.890625 Z M 4 -0.890625 "/></g></g></g><g fill="#545454" fill-opacity="1"><g transform="translate(221.816199, 267.090922)"><g><path d="M 9.296875 -7.046875 C 9.835938 -7.046875 10.316406 -6.9375 10.734375 -6.71875 C 11.160156 -6.5 11.492188 -6.164062 11.734375 -5.71875 C 11.984375 -5.269531 12.109375 -4.722656 12.109375 -4.078125 L 12.109375 0 L 10.96875 0 L 10.96875 -3.921875 C 10.96875 -4.609375 10.796875 -5.132812 10.453125 -5.5 C 10.117188 -5.875 9.660156 -6.0625 9.078125 -6.0625 C 8.472656 -6.0625 7.992188 -5.867188 7.640625 -5.484375 C 7.285156 -5.097656 7.109375 -4.539062 7.109375 -3.8125 L 7.109375 0 L 5.984375 0 L 5.984375 -3.921875 C 5.984375 -4.609375 5.8125 -5.132812 5.46875 -5.5 C 5.125 -5.875 4.660156 -6.0625 4.078125 -6.0625 C 3.484375 -6.0625 3.007812 -5.867188 2.65625 -5.484375 C 2.300781 -5.097656 2.125 -4.539062 2.125 -3.8125 L 2.125 0 L 0.96875 0 L 0.96875 -6.921875 L 2.125 -6.921875 L 2.125 -5.921875 C 2.351562 -6.285156 2.65625 -6.5625 3.03125 -6.75 C 3.414062 -6.945312 3.84375 -7.046875 4.3125 -7.046875 C 4.894531 -7.046875 5.40625 -6.914062 5.84375 -6.65625 C 6.289062 -6.394531 6.625 -6.015625 6.84375 -5.515625 C 7.039062 -6.003906 7.363281 -6.378906 7.8125 -6.640625 C 8.257812 -6.910156 8.753906 -7.046875 9.296875 -7.046875 Z M 9.296875 -7.046875 "/></g></g></g><g fill="#545454" fill-opacity="1"><g transform="translate(234.821306, 267.090922)"><g><path d="M 2.125 -5.65625 C 2.351562 -6.050781 2.691406 -6.378906 3.140625 -6.640625 C 3.585938 -6.910156 4.113281 -7.046875 4.71875 -7.046875 C 5.332031 -7.046875 5.890625 -6.894531 6.390625 -6.59375 C 6.890625 -6.300781 7.28125 -5.882812 7.5625 -5.34375 C 7.851562 -4.8125 8 -4.191406 8 -3.484375 C 8 -2.785156 7.851562 -2.160156 7.5625 -1.609375 C 7.28125 -1.066406 6.890625 -0.644531 6.390625 -0.34375 C 5.890625 -0.0390625 5.332031 0.109375 4.71875 0.109375 C 4.125 0.109375 3.601562 -0.0195312 3.15625 -0.28125 C 2.707031 -0.550781 2.363281 -0.882812 2.125 -1.28125 L 2.125 3.28125 L 0.96875 3.28125 L 0.96875 -6.921875 L 2.125 -6.921875 Z M 6.828125 -3.484375 C 6.828125 -4.003906 6.71875 -4.457031 6.5 -4.84375 C 6.289062 -5.238281 6.007812 -5.535156 5.65625 -5.734375 C 5.300781 -5.941406 4.90625 -6.046875 4.46875 -6.046875 C 4.050781 -6.046875 3.660156 -5.941406 3.296875 -5.734375 C 2.941406 -5.523438 2.65625 -5.222656 2.4375 -4.828125 C 2.226562 -4.441406 2.125 -3.988281 2.125 -3.46875 C 2.125 -2.945312 2.226562 -2.488281 2.4375 -2.09375 C 2.65625 -1.707031 2.941406 -1.410156 3.296875 -1.203125 C 3.660156 -0.992188 4.050781 -0.890625 4.46875 -0.890625 C 4.90625 -0.890625 5.300781 -0.992188 5.65625 -1.203125 C 6.007812 -1.410156 6.289062 -1.707031 6.5 -2.09375 C 6.71875 -2.488281 6.828125 -2.953125 6.828125 -3.484375 Z M 6.828125 -3.484375 "/></g></g></g><g fill="#545454" fill-opacity="1"><g transform="translate(243.3567, 267.090922)"><g><path d="M 0.546875 -3.484375 C 0.546875 -4.191406 0.6875 -4.8125 0.96875 -5.34375 C 1.257812 -5.882812 1.65625 -6.300781 2.15625 -6.59375 C 2.65625 -6.894531 3.210938 -7.046875 3.828125 -7.046875 C 4.429688 -7.046875 4.957031 -6.910156 5.40625 -6.640625 C 5.851562 -6.378906 6.1875 -6.050781 6.40625 -5.65625 L 6.40625 -6.921875 L 7.578125 -6.921875 L 7.578125 0 L 6.40625 0 L 6.40625 -1.296875 C 6.175781 -0.890625 5.835938 -0.550781 5.390625 -0.28125 C 4.941406 -0.0195312 4.414062 0.109375 3.8125 0.109375 C 3.195312 0.109375 2.640625 -0.0390625 2.140625 -0.34375 C 1.648438 -0.644531 1.257812 -1.066406 0.96875 -1.609375 C 0.6875 -2.160156 0.546875 -2.785156 0.546875 -3.484375 Z M 6.40625 -3.46875 C 6.40625 -4 6.300781 -4.457031 6.09375 -4.84375 C 5.882812 -5.226562 5.597656 -5.523438 5.234375 -5.734375 C 4.878906 -5.941406 4.488281 -6.046875 4.0625 -6.046875 C 3.625 -6.046875 3.226562 -5.941406 2.875 -5.734375 C 2.519531 -5.535156 2.238281 -5.238281 2.03125 -4.84375 C 1.820312 -4.457031 1.71875 -4.003906 1.71875 -3.484375 C 1.71875 -2.953125 1.820312 -2.488281 2.03125 -2.09375 C 2.238281 -1.707031 2.519531 -1.410156 2.875 -1.203125 C 3.226562 -0.992188 3.625 -0.890625 4.0625 -0.890625 C 4.488281 -0.890625 4.878906 -0.992188 5.234375 -1.203125 C 5.597656 -1.410156 5.882812 -1.707031 6.09375 -2.09375 C 6.300781 -2.488281 6.40625 -2.945312 6.40625 -3.46875 Z M 6.40625 -3.46875 "/></g></g></g><g fill="#545454" fill-opacity="1"><g transform="translate(251.892094, 267.090922)"><g><path d="M 4.34375 -7.046875 C 5.1875 -7.046875 5.867188 -6.789062 6.390625 -6.28125 C 6.921875 -5.78125 7.1875 -5.046875 7.1875 -4.078125 L 7.1875 0 L 6.046875 0 L 6.046875 -3.921875 C 6.046875 -4.609375 5.867188 -5.132812 5.515625 -5.5 C 5.171875 -5.875 4.703125 -6.0625 4.109375 -6.0625 C 3.503906 -6.0625 3.019531 -5.867188 2.65625 -5.484375 C 2.300781 -5.109375 2.125 -4.554688 2.125 -3.828125 L 2.125 0 L 0.96875 0 L 0.96875 -6.921875 L 2.125 -6.921875 L 2.125 -5.9375 C 2.351562 -6.289062 2.660156 -6.5625 3.046875 -6.75 C 3.441406 -6.945312 3.875 -7.046875 4.34375 -7.046875 Z M 4.34375 -7.046875 "/></g></g></g><g fill="#545454" fill-opacity="1"><g transform="translate(259.972938, 267.090922)"><g><path d="M 1.5625 -8.046875 C 1.34375 -8.046875 1.15625 -8.117188 1 -8.265625 C 0.851562 -8.421875 0.78125 -8.609375 0.78125 -8.828125 C 0.78125 -9.054688 0.851562 -9.242188 1 -9.390625 C 1.15625 -9.546875 1.34375 -9.625 1.5625 -9.625 C 1.78125 -9.625 1.960938 -9.546875 2.109375 -9.390625 C 2.253906 -9.242188 2.328125 -9.054688 2.328125 -8.828125 C 2.328125 -8.609375 2.253906 -8.421875 2.109375 -8.265625 C 1.960938 -8.117188 1.78125 -8.046875 1.5625 -8.046875 Z M 2.125 -6.921875 L 2.125 0 L 0.96875 0 L 0.96875 -6.921875 Z M 2.125 -6.921875 "/></g></g></g><g fill="#545454" fill-opacity="1"><g transform="translate(263.079011, 267.090922)"><g><path d="M 4 0.109375 C 3.34375 0.109375 2.75 -0.0351562 2.21875 -0.328125 C 1.695312 -0.617188 1.285156 -1.035156 0.984375 -1.578125 C 0.691406 -2.128906 0.546875 -2.757812 0.546875 -3.46875 C 0.546875 -4.175781 0.695312 -4.800781 1 -5.34375 C 1.3125 -5.894531 1.734375 -6.316406 2.265625 -6.609375 C 2.796875 -6.898438 3.390625 -7.046875 4.046875 -7.046875 C 4.703125 -7.046875 5.296875 -6.898438 5.828125 -6.609375 C 6.359375 -6.316406 6.773438 -5.898438 7.078125 -5.359375 C 7.390625 -4.816406 7.546875 -4.1875 7.546875 -3.46875 C 7.546875 -2.757812 7.382812 -2.128906 7.0625 -1.578125 C 6.75 -1.035156 6.320312 -0.617188 5.78125 -0.328125 C 5.25 -0.0351562 4.65625 0.109375 4 0.109375 Z M 4 -0.890625 C 4.40625 -0.890625 4.789062 -0.988281 5.15625 -1.1875 C 5.519531 -1.382812 5.8125 -1.675781 6.03125 -2.0625 C 6.257812 -2.445312 6.375 -2.914062 6.375 -3.46875 C 6.375 -4.03125 6.265625 -4.503906 6.046875 -4.890625 C 5.828125 -5.273438 5.539062 -5.5625 5.1875 -5.75 C 4.832031 -5.945312 4.445312 -6.046875 4.03125 -6.046875 C 3.613281 -6.046875 3.226562 -5.945312 2.875 -5.75 C 2.519531 -5.5625 2.238281 -5.273438 2.03125 -4.890625 C 1.820312 -4.503906 1.71875 -4.03125 1.71875 -3.46875 C 1.71875 -2.90625 1.820312 -2.429688 2.03125 -2.046875 C 2.238281 -1.660156 2.515625 -1.367188 2.859375 -1.171875 C 3.203125 -0.984375 3.582031 -0.890625 4 -0.890625 Z M 4 -0.890625 "/></g></g></g><g fill="#545454" fill-opacity="1"><g transform="translate(271.159855, 267.090922)"><g><path d="M 4.34375 -7.046875 C 5.1875 -7.046875 5.867188 -6.789062 6.390625 -6.28125 C 6.921875 -5.78125 7.1875 -5.046875 7.1875 -4.078125 L 7.1875 0 L 6.046875 0 L 6.046875 -3.921875 C 6.046875 -4.609375 5.867188 -5.132812 5.515625 -5.5 C 5.171875 -5.875 4.703125 -6.0625 4.109375 -6.0625 C 3.503906 -6.0625 3.019531 -5.867188 2.65625 -5.484375 C 2.300781 -5.109375 2.125 -4.554688 2.125 -3.828125 L 2.125 0 L 0.96875 0 L 0.96875 -6.921875 L 2.125 -6.921875 L 2.125 -5.9375 C 2.351562 -6.289062 2.660156 -6.5625 3.046875 -6.75 C 3.441406 -6.945312 3.875 -7.046875 4.34375 -7.046875 Z M 4.34375 -7.046875 "/></g></g></g></svg>