<svg width="68" height="50" viewBox="0 0 68 50" fill="none" xmlns="http://www.w3.org/2000/svg">
<path d="M54.0495 16.5545C37.4294 11.2028 22.5643 14.6216 15.4356 16.8515C13.9505 23.3862 14.7086 38.3385 16.5846 41.9029C18.0698 44.7247 19.2579 46.8039 22.9708 46.8039H48.6638C52.2282 46.8039 52.8486 44.2808 53.7133 41.9029C55.4955 37.0019 55.2376 23.0891 54.0495 16.5545Z" fill="#C2A996" stroke="#C2A996" stroke-width="5"/>
<path d="M17.6634 26.2079C17.6634 20.8614 28.2079 19.0792 34.7426 24.1287C41.1287 19.0297 52.1188 21.4555 52.1188 26.2079C52.1188 40.6139 42.9109 42.6931 34.7426 42.6931C27.5446 42.6931 17.6634 40.3169 17.6634 26.2079Z" fill="white" stroke="white" stroke-width="6"/>
<path d="M8.04174 11.515L4 10.2834L34.4685 2L64 10.2834L54.7809 13.5047V18.3366C37.8677 13.1825 21.8251 16.1891 14.5707 18.3366V13.5047L8.04174 11.515Z" fill="#1D235C"/>
<path d="M8.04174 11.515L4 10.2834L34.4685 2L64 10.2834L54.7809 13.5047V18.3366C37.8677 13.1825 21.8251 16.1891 14.5707 18.3366V13.5047L8.04174 11.515ZM8.04174 11.515V10.2834" stroke="#1D235C" stroke-width="2"/>
<path d="M13 19L13.2593 14.4568C21.0279 12.6702 37.6115 10.0303 55.7235 14.318L56 19C37.888 14.7122 20.7686 17.2134 13 19Z" fill="#414881" stroke="#414881" stroke-width="2"/>
<path d="M6.67328 23.8123L8.50638 19.2729L10.034 23.8123H6.67328Z" fill="#D6C776"/>
<path d="M8.50638 10.9109V12.1898V19.2729M8.50638 19.2729L6.67328 23.8123H10.034L8.50638 19.2729Z" stroke="#D6C776" stroke-width="2"/>
<path d="M35.9307 33.6337H32.9604L34.5446 37.6436L35.9307 33.6337Z" fill="#EDD0A4" stroke="#EDD0A4" stroke-width="1.5"/>
<circle cx="26.2772" cy="29.9208" r="1.48515" fill="black"/>
<circle cx="41.1287" cy="29.9208" r="1.48515" fill="black"/>
</svg>
