<svg width="109" height="175" viewBox="0 0 109 175" fill="none" xmlns="http://www.w3.org/2000/svg">
<path d="M39.557 140.703V159.229M39.557 159.229C36.8865 159.063 30.2436 159.43 25.0361 162.234M39.557 159.229C34.7167 160.732 29.5426 164.237 27.5397 167.491M39.557 159.229C41.2261 158.395 45.5657 159.229 48.0693 162.234" stroke="#E7C89A" stroke-width="4"/>
<path d="M98.6421 162.734L86.6248 144.709L95.6378 139.701L108.156 162.734H98.6421Z" fill="#958071"/>
<path d="M82.7013 33.45C66.1559 17.9973 24.6894 24.6828 19.3729 37.9559C10.0454 55.9795 8.47447 84.0964 10.0454 97.4339C12.0091 114.106 21.8274 147.9 57.1736 152.406C77.3012 154.972 78.774 151.054 89.0833 146.548C112.156 133.031 110.684 59.5842 82.7013 33.45Z" fill="#C2A996"/>
<path d="M81.1169 56.5815C77.7241 37.1011 55.4845 38.2978 50.5729 45.0649C45.5078 38.4552 25.0355 37.8595 22.9279 53.9117C17.121 98.1414 88.0238 96.2398 81.1169 56.5815Z" fill="white"/>
<path d="M54.5786 59.0851H47.0678L50.8232 74.1068L54.5786 59.0851Z" fill="#EDD0A4"/>
<circle cx="34.049" cy="55.0794" r="2.50361" fill="black"/>
<circle cx="67.5974" cy="55.0794" r="2.50361" fill="black"/>
<path d="M103.067 77.1111L66.0952 91.632C83.9248 132.374 92.745 149.864 103.067 134.898C113.39 119.931 103.067 77.1111 103.067 77.1111Z" fill="#958071"/>
<path d="M68.5989 146.711V165.238M68.5989 165.238C65.9284 165.071 59.2854 165.438 54.0779 168.242M68.5989 165.238C63.7586 166.74 58.5844 170.245 56.5815 173.5M68.5989 165.238C70.2679 164.404 74.6075 165.238 77.1111 168.242" stroke="#E7C89A" stroke-width="4"/>
<path d="M0 19.0274L50.0722 0L107.154 19.0274L79.114 30.0433H27.5397L0 19.0274Z" fill="#1D235C"/>
<path d="M87.1255 38.0548C55.5801 27.2735 28.9167 33.5626 19.5281 38.0548V26.1954C31.8186 21.1641 62.5447 14.1203 87.1255 26.1954V38.0548Z" fill="#414881" stroke="#414881"/>
<path d="M6.00867 46.5671L8.51227 36.0519L11.0159 46.5671H6.00867Z" fill="#D6C776"/>
<path d="M8.51227 19.0274V36.0519M8.51227 36.0519L6.00867 46.5671H11.0159L8.51227 36.0519Z" stroke="#D6C776" stroke-width="2"/>
</svg>
